<svg  id="svg_3" data-name="图层 1" xmlns:xlink="http://www.w3.org/1999/xlink" xmlns="http://www.w3.org/2000/svg" viewBox="0 0 809.1445 562.15011" onclick="onSvgclick(evt)" onmouseover="onSvgonmouseover(evt)" onmouseout="onSvgonmouseout(evt)" onload="init(this)">
  <script  type="text/javascript" xlink:href="../../Jquery/svg/svg-pan-zoom.js"></script>
  <script  type="text/javascript" xlink:href="../../Jquery/svg/svg.min.js"></script>
  <script  type="text/javascript" xlink:href="../../Jquery/svg/snap.svg-min.js"></script>
  <script  type="text/javascript" xlink:href="../../Jquery/jquery-3.3.1.min.js"></script>
  <script  type="text/javascript" xlink:href="../../Script/ybdd/svg/svg_innerop_ght.js"></script>
  <title></title>
  <path id="中运河" d="M43.97409,570.90583c-3.91383,0-7.08661-2.7774-7.08661-7.9031V47.01947c0-4.86092,3.17278-9.027,7.08661-9.027h0c3.91383,0,7.08662,4.39755,7.08662,9.027V563.00273c0,5.76219-3.17279,7.9031-7.08662,7.9031Z" transform="translate(-10.79395 -17.55518)" style="fill:#2c70a5"/>
  <text transform="matrix(0.96593, 0, 0.25882, 0.96593, 3.96825, 181.85387)" style="font-size:18px;fill:#127dc2;font-family:FZSSJW--GB1-0, FZShuSong-Z01S">河</text>
  <text transform="matrix(0.96593, 0, 0.25882, 0.96593, 3.96777, 416.05071)" style="font-size:18px;fill:#127dc2;font-family:FZSSJW--GB1-0, FZShuSong-Z01S">黄</text>
  <path id="中运河-2" data-name="中运河" d="M346.07757,128.92956c0,.78276-1.55121,1.41732-4.414,1.41732H53.48146c-2.71488,0-5.04169-.63456-5.04169-1.41732h0c0-.78277,2.45608-1.41733,5.04169-1.41733H341.6636c3.21825,0,4.414.63456,4.414,1.41733Z" transform="translate(-10.79395 -17.55518)" style="fill:#2c70a5"/>
  <path id="中运河-3" data-name="中运河" d="M275.68275,200.7954c0,.78277-1.18187,1.41733-3.363,1.41733H52.75239c-2.06848,0-3.84129-.63456-3.84129-1.41733h0c0-.78276,1.8713-1.41732,3.84129-1.41732H272.31973c2.452,0,3.363.63456,3.363,1.41732Z" transform="translate(-10.79395 -17.55518)" style="fill:#2c70a5"/>
  <path id="中运河-4" data-name="中运河" d="M185.32842,272.66125c0,.78277-.70912,1.41732-2.01781,1.41732H51.5702c-1.24108,0-2.30477-.63455-2.30477-1.41732h0c0-.78277,1.12278-1.41732,2.30477-1.41732H183.31061c1.4712,0,2.01781.63455,2.01781,1.41732Z" transform="translate(-10.79395 -17.55518)" style="fill:#2c70a5"/>
  <path id="中运河-5" data-name="中运河" d="M551.49757,56.95577c.78277,0,1.41732,1.41824,1.41732,4.03562V324.4722c0,2.48218-.63455,4.60955-1.41732,4.60955h0c-.78277,0-1.41732-2.24556-1.41732-4.60955V60.99139c0-2.94239.63456-4.03562,1.41732-4.03562Z" transform="translate(-10.79395 -17.55518)" style="fill:#2c70a5"/>
  <path id="中运河-6" data-name="中运河" d="M643.96566,128.8922c.78276,0,1.41732.73867,1.41732,2.10189V268.22368c0,1.2928-.63456,2.4008-1.41732,2.4008h0c-.78277,0-1.41733-1.16956-1.41733-2.4008V130.99409c0-1.5325.63456-2.10189,1.41733-2.10189Z" transform="translate(-10.79395 -17.55518)" style="fill:#2c70a5"/>
  <path id="中运河-7" data-name="中运河" d="M692.18328,147.9572a1.30587,1.30587,0,0,1,1.41732,1.34521v87.82694a1.49413,1.49413,0,0,1-1.41732,1.53651h0a1.52039,1.52039,0,0,1-1.41732-1.53651V149.30241a1.25136,1.25136,0,0,1,1.41732-1.34521Z" transform="translate(-10.79395 -17.55518)" style="fill:#2c70a5"/>
  <path id="中运河-8" data-name="中运河" d="M736.18371,70.87092c.78277,0,1.41733.73867,1.41733,2.10189V210.2024c0,1.2928-.63456,2.40081-1.41733,2.40081h0c-.78276,0-1.41732-1.16956-1.41732-2.40081V72.97281c0-1.53249.63456-2.10189,1.41732-2.10189Z" transform="translate(-10.79395 -17.55518)" style="fill:#2c70a5"/>
  <path id="中运河-9" data-name="中运河" d="M431.149,263.52148c.52966-.36422,1.3106-.14821,1.95943.79534l65.31492,94.98312c.61532.89481.7133,1.957.18364,2.32119h0c-.52966.36422-1.5157-.15-2.10171-1.00223l-65.31492-94.98312c-.7294-1.06072-.571-1.75008-.04136-2.1143Z" transform="translate(-10.79395 -17.55518)" style="fill:#2c70a5"/>
  <path id="中运河-10" data-name="中运河" d="M688.91175,426.26891c.42417.65788.172,1.57546-.92785,2.28462L577.26207,499.94128c-1.04308.67253-2.28091.7156-2.70508.05772h0c-.42417-.65788.17562-1.79961,1.169-2.44011l110.72182-71.38775c1.23648-.79722,2.03974-.5601,2.4639.09777Z" transform="translate(-10.79395 -17.55518)" style="fill:#2c70a5"/>
  <path id="中运河-11" data-name="中运河" d="M136.28106,223.92259a.96477.96477,0,0,1-.064,1.44493l-49.2999,47.67769a1.12232,1.12232,0,0,1-1.55365.11944h0a1.1429,1.1429,0,0,1,.17134-1.54878l49.2999-47.67769a.92307.92307,0,0,1,1.44626-.01559Z" transform="translate(-10.79395 -17.55518)" style="fill:#2c70a5"/>
  <path id="中运河-12" data-name="中运河" d="M203.29869,167.77811c.38172.3947.51463.88539.18885,1.20046l-32.79525,31.71614a.92035.92035,0,0,1-1.2649-.1598h0a.9355.9355,0,0,1-.11741-1.26954l32.79525-31.71615c.36623-.35419.81175-.16581,1.19346.22889Z" transform="translate(-10.79395 -17.55518)" style="fill:#2c70a5"/>
  <path id="中运河-13" data-name="中运河" d="M239.32817,234.06643a.69164.69164,0,0,0,.02684-1.03293l-32.79526-31.71613a.7874.7874,0,0,0-1.10289-.00772h0a.8011.8011,0,0,0,.0446,1.102l32.79526,31.71613a.663.663,0,0,0,1.03145-.06137Z" transform="translate(-10.79395 -17.55518)" style="fill:#2c70a5"/>
  <path id="中运河-14" data-name="中运河" d="M268.82393,234.0713a.61876.61876,0,0,0-.08033-.92212l-32.79526-31.71613a.72978.72978,0,0,0-.99573-.11853h0a.74371.74371,0,0,0,.15176.99121l32.79526,31.71613a.591.591,0,0,0,.9243.04944Z" transform="translate(-10.79395 -17.55518)" style="fill:#2c70a5"/>
  <path id="中运河-15" data-name="中运河" d="M282.91036,189.872c.38171-.3947.36414-1.03093-.23938-1.61458l-60.75321-58.75411c-.57234-.55351-1.37231-.70792-1.754-.31322h0c-.38172.3947-.17338,1.21541.37171,1.74256l60.75321,58.75411c.67846.65613,1.24.57994,1.62169.18524Z" transform="translate(-10.79395 -17.55518)" style="fill:#2c70a5"/>
  <path id="中运河-16" data-name="中运河" d="M754.05739,489.89489a1.348,1.348,0,0,1-.44239,1.97161l-79.02607,50.952a1.55851,1.55851,0,0,1-2.15056-.2998h0a1.58664,1.58664,0,0,1,.61452-2.08259l79.02607-50.952a1.29052,1.29052,0,0,1,1.97843.41079Z" transform="translate(-10.79395 -17.55518)" style="fill:#2c70a5"/>
  <path id="中运河-17" data-name="中运河" d="M812.27867,495.5695c.79719,1.23643.89493,2.59241-.11734,3.24507L710.26006,564.5154a2.46028,2.46028,0,0,1-3.22618-1.08933h0a2.50075,2.50075,0,0,1,.33931-3.38819l101.90127-65.70083c1.138-.7337,2.207-.004,3.00421,1.23245Z" transform="translate(-10.79395 -17.55518)" style="fill:#2c70a5"/>
  <path id="中运河-18" data-name="中运河" d="M389.58268,425.66725a1.13226,1.13226,0,0,1,1.13386,1.26113v82.33776a1.328,1.328,0,0,1-1.13386,1.44048h0a1.35292,1.35292,0,0,1-1.13386-1.44048V426.92838c0-.91949.50764-1.26113,1.13386-1.26113Z" transform="translate(-10.79395 -17.55518)" style="fill:#2c70a5"/>
  <path id="中运河-19" data-name="中运河" d="M515.24711,474.69308a1.13226,1.13226,0,0,1,1.13386,1.26113V558.292a1.328,1.328,0,0,1-1.13386,1.44048h0a1.35293,1.35293,0,0,1-1.13386-1.44048V475.95421c0-.91949.50765-1.26113,1.13386-1.26113Z" transform="translate(-10.79395 -17.55518)" style="fill:#2c70a5"/>
  <path id="中运河-20" data-name="中运河" d="M606.00821,517.34308c.62621,0,1.13386.325,1.13386.92483v60.381a1.10681,1.10681,0,0,1-1.13386,1.05635h0a1.12544,1.12544,0,0,1-1.13386-1.05635v-60.381c0-.6743.50765-.92483,1.13386-.92483Z" transform="translate(-10.79395 -17.55518)" style="fill:#2c70a5"/>
  <path id="中运河-21" data-name="中运河" d="M474.15429,455.28121c.62621,0,1.13386.29547,1.13386.84076v54.89184a1.06711,1.06711,0,0,1-1.13386.96032h0a1.08476,1.08476,0,0,1-1.13386-.96032V456.122c0-.613.50764-.84076,1.13386-.84076Z" transform="translate(-10.79395 -17.55518)" style="fill:#2c70a5"/>
  <path id="中运河-22" data-name="中运河" d="M228.18529,136.85461c.46966,0,.85039.17728.85039.50445v32.9351c0,.31027-.38073.57619-.85039.57619h0c-.46966,0-.85039-.28069-.85039-.57619v-32.9351c0-.3678.38073-.50445.85039-.50445Z" transform="translate(-10.79395 -17.55518)" style="fill:#2c70a5"/>
  <path id="中运河-23" data-name="中运河" d="M612.91454,418.90347c.54794,0,.99213.29547.99213.84076v54.89183a.98528.98528,0,0,1-.99213.96033h0a1.002,1.002,0,0,1-.99212-.96033V419.74423c0-.613.44419-.84076.99212-.84076Z" transform="translate(-10.79395 -17.55518)" style="fill:#2c70a5"/>
  <path id="中运河-24" data-name="中运河" d="M554.506,435.53c-.256.53163-.94286.73179-1.82755.30582l-89.0579-42.88063c-.839-.404-1.35054-1.18116-1.09457-1.71279h0c.256-.53163,1.2225-.59714,2.02154-.21241l89.0579,42.88063c.99455.47886,1.15656,1.08776.90058,1.61938Z" transform="translate(-10.79395 -17.55518)" style="fill:#2c70a5"/>
  <path id="中运河-25" data-name="中运河" d="M660.311,400.19517c-.26891.55851-1.12583.70363-2.305.13589L539.30821,343.179c-1.11822-.53841-1.8586-1.45262-1.58968-2.01113h0c.26891-.5585,1.49854-.52417,2.56351-.0114l118.69785,57.152c1.32555.63824,1.60005,1.32813,1.33113,1.88664Z" transform="translate(-10.79395 -17.55518)" style="fill:#2c70a5"/>
  <path id="中运河-26" data-name="中运河" d="M652.975,339.24563a.976.976,0,0,1-1.3901.4567l-62.022-29.86306a1.13239,1.13239,0,0,1-.64493-1.43655h0a1.153,1.153,0,0,1,1.5252-.39166l62.022,29.86307a.934.934,0,0,1,.50983,1.3715Z" transform="translate(-10.79395 -17.55518)" style="fill:#2c70a5"/>
  <path id="中运河-27" data-name="中运河" d="M550.95461,261.726c-.14568.30254-.54654.41165-1.06839.16038l-52.53265-25.2939c-.4949-.23828-.801-.68776-.65529-.9903h0c.14567-.30254.71148-.33223,1.18281-.10529l52.53266,25.2939c.58665.28247.68653.63267.54086.93521Z" transform="translate(-10.79395 -17.55518)" style="fill:#2c70a5"/>
  <path id="中运河-28" data-name="中运河" d="M550.97435,234.25971c-.15656.32516-.554.4585-1.05323.21812l-50.25585-24.19776c-.47344-.228-.7523-.68693-.59574-1.01209h0c.15656-.32515.71179-.38252,1.1627-.16541l50.25585,24.19777c.56122.27022.64283.63421.48627.95937Z" transform="translate(-10.79395 -17.55518)" style="fill:#2c70a5"/>
  <path id="中运河-29" data-name="中运河" d="M736.46345,175.11273c.29938.20152.82588-.05674,1.34964-.83484l52.72474-78.32862c.4967-.73791.67971-1.53371.38033-1.73523h0c-.29937-.20152-.99142.30269-1.46448,1.00546l-52.72474,78.32862c-.5888.87473-.56487,1.36309-.26549,1.56461Z" transform="translate(-10.79395 -17.55518)" style="fill:#2c70a5"/>
  <path id="中运河-30" data-name="中运河" d="M551.49723,312.58c-.17449.36239-.69986.47131-1.4084.13016l-71.32529-34.34253c-.67193-.32353-1.10637-.89459-.93188-1.257h0c.17449-.36239.92382-.36348,1.56376-.05535l71.32529,34.34253c.79652.38352.951.81979.77652,1.18218Z" transform="translate(-10.79395 -17.55518)" style="fill:#2c70a5"/>
  <path id="中运河-31" data-name="中运河" d="M699.05381,311.84293a.97341.97341,0,0,1-1.38768.45168l-62.022-29.86306A1.13037,1.13037,0,0,1,634.99676,281h0a1.151,1.151,0,0,1,1.52277-.38663l62.022,29.86306a.9315.9315,0,0,1,.51226,1.36648Z" transform="translate(-10.79395 -17.55518)" style="fill:#2c70a5"/>
  <path id="中运河-32" data-name="中运河" d="M768.014,265.58414a.96225.96225,0,0,1-1.377.42942l-62.022-29.86307a1.12181,1.12181,0,0,1-.65807-1.40926h0a1.14253,1.14253,0,0,1,1.51206-.36437l62.022,29.86307a.92043.92043,0,0,1,.523,1.34421Z" transform="translate(-10.79395 -17.55518)" style="fill:#2c70a5"/>
  <path id="中运河-33" data-name="中运河" d="M802.59441,206.78163c-.18547.3852-.48821.62409-.76943.48868l-28.31-13.631a.6974.6974,0,0,1-.15945-.93593h0c.18547-.3852.5771-.58129.8311-.459l28.31,13.631c.31615.15223.28326.52105.09779.90625Z" transform="translate(-10.79395 -17.55518)" style="fill:#2c70a5"/>
  <path id="中运河-34" data-name="中运河" d="M406.37643,424.59608c-1.25442-1.944-.11771-4.90958,3.8568-7.47426l400.097-258.17576c3.76919-2.4322,8.01652-2.94083,9.27094-.99685h0c1.25442,1.944-1.13857,5.72023-4.7283,8.03662L414.77588,424.1616c-4.468,2.88315-7.145,2.37847-8.39945.43448Z" transform="translate(-10.79395 -17.55518)" style="fill:#2c70a5"/>
  <path id="中运河-35" data-name="中运河" d="M171.73735,422.81125c-.68206-.75825.19985-2.66358,2.84782-5.04546L441.14534,177.9915c2.51119-2.25884,5.21634-3.58012,5.89839-2.82186h0c.68206.75825-1.03682,3.41645-3.42844,5.56774L177.05512,420.51167c-2.97678,2.67766-4.63571,3.05784-5.31777,2.29958Z" transform="translate(-10.79395 -17.55518)" style="fill:#2c70a5"/>
  <path id="中运河-36" data-name="中运河" d="M226.79734,420.88847c-.43385-.48164-.25113-1.35348.73514-2.24188l99.28373-89.43212c.93533-.84252,2.08865-1.17416,2.5225-.69252h0c.43385.48164-.06061,1.63429-.9514,2.43668l-99.28373,89.43213c-1.10874.99872-1.87239.97935-2.30624.49771Z" transform="translate(-10.79395 -17.55518)" style="fill:#2c70a5"/>
  <path id="中运河-37" data-name="中运河" d="M274.61593,420.925c-.45007-.49938-.14413-1.50877,1.09384-2.62451L400.33046,305.9837c1.174-1.0581,2.54507-1.56013,2.99515-1.06076h0c.45007.49938-.24717,1.86145-1.36529,2.86917L277.33963,420.10887c-1.39169,1.25428-2.27362,1.31548-2.7237.8161Z" transform="translate(-10.79395 -17.55518)" style="fill:#2c70a5"/>
  <path id="中运河-38" data-name="中运河" d="M403.85033,421.24005c-.94366,2.05409-.10171,4.4575,2.86391,5.81992L705.25086,564.20919c2.81243,1.292,5.98783.73423,6.93149-1.31986h0c.94366-2.05409-.83568-4.88814-3.51419-6.11866L410.13154,419.62144c-3.33388-1.5316-5.33755-.43548-6.28121,1.61861Z" transform="translate(-10.79395 -17.55518)" style="fill:#2c70a5"/>
  <path id="中运河-39" data-name="中运河" d="M206.71875,423.15544c0,2.3483-.62049,4.252-1.76559,4.252H89.6803c-1.08595,0-2.01667-1.90367-2.01667-4.252h0c0-2.3483.98243-4.252,2.01667-4.252H204.95316c1.2873,0,1.76559,1.90367,1.76559,4.252Z" transform="translate(-10.79395 -17.55518)" style="fill:#2c70a5"/>
  <path id="中运河-40" data-name="中运河" d="M316.90568,423.15544c0,2.3483-.59094,4.252-1.68151,4.252H205.4405c-1.03424,0-1.92065-1.90367-1.92065-4.252h0c0-2.3483.93565-4.252,1.92065-4.252H315.22417c1.226,0,1.68151,1.90367,1.68151,4.252Z" transform="translate(-10.79395 -17.55518)" style="fill:#2c70a5"/>
  <path id="中运河-41" data-name="中运河" d="M408.97872,423.15544c0,2.3483-.49143,4.252-1.39837,4.252h-91.2983c-.8601,0-1.59725-1.90367-1.59725-4.252h0c0-2.3483.77811-4.252,1.59725-4.252h91.2983c1.01956,0,1.39837,1.90367,1.39837,4.252Z" transform="translate(-10.79395 -17.55518)" style="fill:#2c70a5"/>
  <path id="东平湖" d="M90.71866,423.80966c-.75589,4.00949-3.78781,4.82332-6.00589,7.72757-1.06423,1.39345-1.21277,3.6383-4.56383,5.15426-2.11341.95606-5.55012.74894-7.44707,1.13908a5.466,5.466,0,0,0-3.13106,1.994,8.87331,8.87331,0,0,1-2.54007,2.0566,5.31622,5.31622,0,0,1-2.51684.05622c-.7875-.24405-2.28124-.78243-2.67752-1.92519a4.39584,4.39584,0,0,1,.4083-3.0654c.78695-1.29285,1.25241-3.79243.04638-4.322-.73255-.32165-2.21659-.33761-3.10058-.67824a4.14849,4.14849,0,0,1-2.261-2.59161c-.62919-1.53764-.09435-2.42946-.49168-3.25317a13.03194,13.03194,0,0,0-1.77533-1.94951,26.25621,26.25621,0,0,1-2.40118-3.306,23.22452,23.22452,0,0,1-2.06446-5.61755,11.81451,11.81451,0,0,1-.71878-2.82446c.00713-.82134.27834-2.04285,1.28107-2.26141,2.07069-.45136,3.798,1.26714,4.75154,2.772.94127,1.48555,4.89893,3.44681,6.15957,4.54788,2.31664,2.02339,2.79256,3.367,3.92606,4.02637a6.42953,6.42953,0,0,0,4.68056.18144,26.48516,26.48516,0,0,0,2.49547-1.92034,12.00065,12.00065,0,0,1,3.53778-1.28711,26.87571,26.87571,0,0,1,5.00375-.56951c.48425.02353,3.95852.10827,5.40957.8617C88.383,419.617,91.08275,421.87842,90.71866,423.80966Z" transform="translate(-10.79395 -17.55518)" style="fill:#c4e3f5;stroke:#2b6b9d;stroke-linejoin:round"/>
  <text transform="matrix(0.96593, 0, 0.25882, 0.96593, 47.24413, 437.726)" style="font-size:12px;fill:#127dc2;font-family:AdobeSongStd-Light-GBpc-EUC-H, Adobe Song Std">东平湖</text>
  <g id="华村">
    <circle cx="602.1206" cy="408.63394" r="7.37838" style="fill:#24adde;stroke:#1a699f;stroke-miterlimit:10;stroke-width:0.25px"/>
    <line x1="594.74222" y1="408.63394" x2="609.49898" y2="408.63394" style="fill:#fff;stroke:#1a699f;stroke-miterlimit:10;stroke-width:0.25px"/>
    <line x1="595.78036" y1="410.61736" x2="601.83503" y2="410.61736" style="fill:#fff;stroke:#1a699f;stroke-miterlimit:10;stroke-width:0.25px"/>
    <line x1="596.81508" y1="412.41617" x2="599.50777" y2="412.41617" style="fill:#fff;stroke:#1a699f;stroke-miterlimit:10;stroke-width:0.25px"/>
    <line x1="600.48868" y1="412.41617" x2="603.18137" y2="412.41617" style="fill:#fff;stroke:#1a699f;stroke-miterlimit:10;stroke-width:0.25px"/>
    <line x1="598.97501" y1="414.09517" x2="601.66771" y2="414.09517" style="fill:#fff;stroke:#1a699f;stroke-miterlimit:10;stroke-width:0.25px"/>
    <line x1="602.88914" y1="414.09517" x2="605.58183" y2="414.09517" style="fill:#fff;stroke:#1a699f;stroke-miterlimit:10;stroke-width:0.25px"/>
    <line x1="604.16374" y1="412.41617" x2="606.85643" y2="412.41617" style="fill:#fff;stroke:#1a699f;stroke-miterlimit:10;stroke-width:0.25px"/>
    <line x1="602.6836" y1="410.61736" x2="608.53185" y2="410.61736" style="fill:#fff;stroke:#1a699f;stroke-miterlimit:10;stroke-width:0.25px"/>
    <path d="M606.00534,425.66806h13.77437a6.909,6.909,0,0,0-6.86518-6.38033,6.96383,6.96383,0,0,0-6.90919,6.38033Z" transform="translate(-10.79395 -17.55518)" style="fill:#fff"/>
  </g>
  <g id="华村-2" data-name="华村">
    <circle cx="504.45316" cy="519.56032" r="7.37838" style="fill:#24adde;stroke:#1a699f;stroke-miterlimit:10;stroke-width:0.25px"/>
    <line x1="497.07479" y1="519.56032" x2="511.83154" y2="519.56032" style="fill:#fff;stroke:#1a699f;stroke-miterlimit:10;stroke-width:0.25px"/>
    <line x1="498.11293" y1="521.54374" x2="504.16759" y2="521.54374" style="fill:#fff;stroke:#1a699f;stroke-miterlimit:10;stroke-width:0.25px"/>
    <line x1="499.14764" y1="523.34255" x2="501.84033" y2="523.34255" style="fill:#fff;stroke:#1a699f;stroke-miterlimit:10;stroke-width:0.25px"/>
    <line x1="502.82125" y1="523.34255" x2="505.51394" y2="523.34255" style="fill:#fff;stroke:#1a699f;stroke-miterlimit:10;stroke-width:0.25px"/>
    <line x1="501.30758" y1="525.02156" x2="504.00027" y2="525.02156" style="fill:#fff;stroke:#1a699f;stroke-miterlimit:10;stroke-width:0.25px"/>
    <line x1="505.22171" y1="525.02156" x2="507.9144" y2="525.02156" style="fill:#fff;stroke:#1a699f;stroke-miterlimit:10;stroke-width:0.25px"/>
    <line x1="506.4963" y1="523.34255" x2="509.18899" y2="523.34255" style="fill:#fff;stroke:#1a699f;stroke-miterlimit:10;stroke-width:0.25px"/>
    <line x1="505.01616" y1="521.54374" x2="510.86442" y2="521.54374" style="fill:#fff;stroke:#1a699f;stroke-miterlimit:10;stroke-width:0.25px"/>
    <path d="M508.33791,536.59444h13.77436a6.909,6.909,0,0,0-6.86517-6.38033,6.96381,6.96381,0,0,0-6.90919,6.38033Z" transform="translate(-10.79395 -17.55518)" style="fill:#fff"/>
  </g>
  <g id="华村-3" data-name="华村">
    <circle cx="463.84465" cy="473.61832" r="7.37838" style="fill:#24adde;stroke:#1a699f;stroke-miterlimit:10;stroke-width:0.25px"/>
    <line x1="456.46627" y1="473.61832" x2="471.22303" y2="473.61832" style="fill:#fff;stroke:#1a699f;stroke-miterlimit:10;stroke-width:0.25px"/>
    <line x1="457.50441" y1="475.60174" x2="463.55908" y2="475.60174" style="fill:#fff;stroke:#1a699f;stroke-miterlimit:10;stroke-width:0.25px"/>
    <line x1="458.53913" y1="477.40056" x2="461.23182" y2="477.40056" style="fill:#fff;stroke:#1a699f;stroke-miterlimit:10;stroke-width:0.25px"/>
    <line x1="462.21273" y1="477.40056" x2="464.90542" y2="477.40056" style="fill:#fff;stroke:#1a699f;stroke-miterlimit:10;stroke-width:0.25px"/>
    <line x1="460.69906" y1="479.07956" x2="463.39175" y2="479.07956" style="fill:#fff;stroke:#1a699f;stroke-miterlimit:10;stroke-width:0.25px"/>
    <line x1="464.61319" y1="479.07956" x2="467.30588" y2="479.07956" style="fill:#fff;stroke:#1a699f;stroke-miterlimit:10;stroke-width:0.25px"/>
    <line x1="465.88779" y1="477.40056" x2="468.58048" y2="477.40056" style="fill:#fff;stroke:#1a699f;stroke-miterlimit:10;stroke-width:0.25px"/>
    <line x1="464.40765" y1="475.60174" x2="470.2559" y2="475.60174" style="fill:#fff;stroke:#1a699f;stroke-miterlimit:10;stroke-width:0.25px"/>
    <path d="M467.72939,490.65245h13.77436a6.909,6.909,0,0,0-6.86517-6.38034,6.96383,6.96383,0,0,0-6.90919,6.38034Z" transform="translate(-10.79395 -17.55518)" style="fill:#fff"/>
  </g>
  <g id="华村-4" data-name="华村">
    <circle cx="378.78873" cy="463.4367" r="7.37838" style="fill:#24adde;stroke:#1a699f;stroke-miterlimit:10;stroke-width:0.25px"/>
    <line x1="371.41035" y1="463.4367" x2="386.16711" y2="463.4367" style="fill:#fff;stroke:#1a699f;stroke-miterlimit:10;stroke-width:0.25px"/>
    <line x1="372.44849" y1="465.42012" x2="378.50316" y2="465.42012" style="fill:#fff;stroke:#1a699f;stroke-miterlimit:10;stroke-width:0.25px"/>
    <line x1="373.48321" y1="467.21894" x2="376.1759" y2="467.21894" style="fill:#fff;stroke:#1a699f;stroke-miterlimit:10;stroke-width:0.25px"/>
    <line x1="377.15681" y1="467.21894" x2="379.84951" y2="467.21894" style="fill:#fff;stroke:#1a699f;stroke-miterlimit:10;stroke-width:0.25px"/>
    <line x1="375.64315" y1="468.89794" x2="378.33584" y2="468.89794" style="fill:#fff;stroke:#1a699f;stroke-miterlimit:10;stroke-width:0.25px"/>
    <line x1="379.55727" y1="468.89794" x2="382.24997" y2="468.89794" style="fill:#fff;stroke:#1a699f;stroke-miterlimit:10;stroke-width:0.25px"/>
    <line x1="380.83187" y1="467.21894" x2="383.52456" y2="467.21894" style="fill:#fff;stroke:#1a699f;stroke-miterlimit:10;stroke-width:0.25px"/>
    <line x1="379.35173" y1="465.42012" x2="385.19999" y2="465.42012" style="fill:#fff;stroke:#1a699f;stroke-miterlimit:10;stroke-width:0.25px"/>
    <path d="M382.67347,480.47083h13.77437a6.909,6.909,0,0,0-6.86517-6.38034,6.96383,6.96383,0,0,0-6.9092,6.38034Z" transform="translate(-10.79395 -17.55518)" style="fill:#fff"/>
  </g>
  <g id="华村-5" data-name="华村">
    <circle cx="393.46478" cy="285.67152" r="7.37838" style="fill:#24adde;stroke:#1a699f;stroke-miterlimit:10;stroke-width:0.25px"/>
    <line x1="386.0864" y1="285.67152" x2="400.84316" y2="285.67152" style="fill:#fff;stroke:#1a699f;stroke-miterlimit:10;stroke-width:0.25px"/>
    <line x1="387.12455" y1="287.65494" x2="393.17921" y2="287.65494" style="fill:#fff;stroke:#1a699f;stroke-miterlimit:10;stroke-width:0.25px"/>
    <line x1="388.15926" y1="289.45376" x2="390.85195" y2="289.45376" style="fill:#fff;stroke:#1a699f;stroke-miterlimit:10;stroke-width:0.25px"/>
    <line x1="391.83287" y1="289.45376" x2="394.52556" y2="289.45376" style="fill:#fff;stroke:#1a699f;stroke-miterlimit:10;stroke-width:0.25px"/>
    <line x1="390.3192" y1="291.13276" x2="393.01189" y2="291.13276" style="fill:#fff;stroke:#1a699f;stroke-miterlimit:10;stroke-width:0.25px"/>
    <line x1="394.23333" y1="291.13276" x2="396.92602" y2="291.13276" style="fill:#fff;stroke:#1a699f;stroke-miterlimit:10;stroke-width:0.25px"/>
    <line x1="395.50792" y1="289.45376" x2="398.20061" y2="289.45376" style="fill:#fff;stroke:#1a699f;stroke-miterlimit:10;stroke-width:0.25px"/>
    <line x1="394.02778" y1="287.65494" x2="399.87604" y2="287.65494" style="fill:#fff;stroke:#1a699f;stroke-miterlimit:10;stroke-width:0.25px"/>
    <path d="M397.34953,302.70565h13.77436a6.909,6.909,0,0,0-6.86517-6.38034,6.96381,6.96381,0,0,0-6.90919,6.38034Z" transform="translate(-10.79395 -17.55518)" style="fill:#fff"/>
  </g>
  <g id="华村-6" data-name="华村">
    <circle cx="440.14779" cy="275.19966" r="7.37838" style="fill:#24adde;stroke:#1a699f;stroke-miterlimit:10;stroke-width:0.25px"/>
    <line x1="432.76941" y1="275.19966" x2="447.52617" y2="275.19966" style="fill:#fff;stroke:#1a699f;stroke-miterlimit:10;stroke-width:0.25px"/>
    <line x1="433.80755" y1="277.18307" x2="439.86222" y2="277.18307" style="fill:#fff;stroke:#1a699f;stroke-miterlimit:10;stroke-width:0.25px"/>
    <line x1="434.84227" y1="278.98189" x2="437.53496" y2="278.98189" style="fill:#fff;stroke:#1a699f;stroke-miterlimit:10;stroke-width:0.25px"/>
    <line x1="438.51587" y1="278.98189" x2="441.20856" y2="278.98189" style="fill:#fff;stroke:#1a699f;stroke-miterlimit:10;stroke-width:0.25px"/>
    <line x1="437.0022" y1="280.66089" x2="439.69489" y2="280.66089" style="fill:#fff;stroke:#1a699f;stroke-miterlimit:10;stroke-width:0.25px"/>
    <line x1="440.91633" y1="280.66089" x2="443.60902" y2="280.66089" style="fill:#fff;stroke:#1a699f;stroke-miterlimit:10;stroke-width:0.25px"/>
    <line x1="442.19093" y1="278.98189" x2="444.88362" y2="278.98189" style="fill:#fff;stroke:#1a699f;stroke-miterlimit:10;stroke-width:0.25px"/>
    <line x1="440.71079" y1="277.18307" x2="446.55904" y2="277.18307" style="fill:#fff;stroke:#1a699f;stroke-miterlimit:10;stroke-width:0.25px"/>
    <path d="M444.03253,292.23378h13.77436a6.909,6.909,0,0,0-6.86517-6.38033,6.96381,6.96381,0,0,0-6.90919,6.38033Z" transform="translate(-10.79395 -17.55518)" style="fill:#fff"/>
  </g>
  <g id="华村-7" data-name="华村">
    <circle cx="493.81614" cy="272.1804" r="7.37838" style="fill:#24adde;stroke:#1a699f;stroke-miterlimit:10;stroke-width:0.25px"/>
    <line x1="486.43777" y1="272.1804" x2="501.19452" y2="272.1804" style="fill:#fff;stroke:#1a699f;stroke-miterlimit:10;stroke-width:0.25px"/>
    <line x1="487.47591" y1="274.16382" x2="493.53057" y2="274.16382" style="fill:#fff;stroke:#1a699f;stroke-miterlimit:10;stroke-width:0.25px"/>
    <line x1="488.51062" y1="275.96263" x2="491.20331" y2="275.96263" style="fill:#fff;stroke:#1a699f;stroke-miterlimit:10;stroke-width:0.25px"/>
    <line x1="492.18423" y1="275.96263" x2="494.87692" y2="275.96263" style="fill:#fff;stroke:#1a699f;stroke-miterlimit:10;stroke-width:0.25px"/>
    <line x1="490.67056" y1="277.64163" x2="493.36325" y2="277.64163" style="fill:#fff;stroke:#1a699f;stroke-miterlimit:10;stroke-width:0.25px"/>
    <line x1="494.58469" y1="277.64163" x2="497.27738" y2="277.64163" style="fill:#fff;stroke:#1a699f;stroke-miterlimit:10;stroke-width:0.25px"/>
    <line x1="495.85928" y1="275.96263" x2="498.55197" y2="275.96263" style="fill:#fff;stroke:#1a699f;stroke-miterlimit:10;stroke-width:0.25px"/>
    <line x1="494.37914" y1="274.16382" x2="500.2274" y2="274.16382" style="fill:#fff;stroke:#1a699f;stroke-miterlimit:10;stroke-width:0.25px"/>
    <path d="M497.70089,289.21452h13.77436a6.909,6.909,0,0,0-6.86517-6.38033,6.96379,6.96379,0,0,0-6.90919,6.38033Z" transform="translate(-10.79395 -17.55518)" style="fill:#fff"/>
  </g>
  <g id="华村-8" data-name="华村">
    <circle cx="514.24125" cy="231.13165" r="7.37838" style="fill:#24adde;stroke:#1a699f;stroke-miterlimit:10;stroke-width:0.25px"/>
    <line x1="506.86287" y1="231.13165" x2="521.61962" y2="231.13165" style="fill:#fff;stroke:#1a699f;stroke-miterlimit:10;stroke-width:0.25px"/>
    <line x1="507.90101" y1="233.11507" x2="513.95567" y2="233.11507" style="fill:#fff;stroke:#1a699f;stroke-miterlimit:10;stroke-width:0.25px"/>
    <line x1="508.93572" y1="234.91388" x2="511.62842" y2="234.91388" style="fill:#fff;stroke:#1a699f;stroke-miterlimit:10;stroke-width:0.25px"/>
    <line x1="512.60933" y1="234.91388" x2="515.30202" y2="234.91388" style="fill:#fff;stroke:#1a699f;stroke-miterlimit:10;stroke-width:0.25px"/>
    <line x1="511.09566" y1="236.59288" x2="513.78835" y2="236.59288" style="fill:#fff;stroke:#1a699f;stroke-miterlimit:10;stroke-width:0.25px"/>
    <line x1="515.00979" y1="236.59288" x2="517.70248" y2="236.59288" style="fill:#fff;stroke:#1a699f;stroke-miterlimit:10;stroke-width:0.25px"/>
    <line x1="516.28438" y1="234.91388" x2="518.97708" y2="234.91388" style="fill:#fff;stroke:#1a699f;stroke-miterlimit:10;stroke-width:0.25px"/>
    <line x1="514.80424" y1="233.11507" x2="520.6525" y2="233.11507" style="fill:#fff;stroke:#1a699f;stroke-miterlimit:10;stroke-width:0.25px"/>
    <path d="M518.126,248.16577h13.77436a6.909,6.909,0,0,0-6.86517-6.38033,6.96381,6.96381,0,0,0-6.90919,6.38033Z" transform="translate(-10.79395 -17.55518)" style="fill:#fff"/>
  </g>
  <g id="华村-9" data-name="华村">
    <circle cx="514.8668" cy="204.23185" r="7.37838" style="fill:#24adde;stroke:#1a699f;stroke-miterlimit:10;stroke-width:0.25px"/>
    <line x1="507.48842" y1="204.23185" x2="522.24518" y2="204.23185" style="fill:#fff;stroke:#1a699f;stroke-miterlimit:10;stroke-width:0.25px"/>
    <line x1="508.52656" y1="206.21526" x2="514.58123" y2="206.21526" style="fill:#fff;stroke:#1a699f;stroke-miterlimit:10;stroke-width:0.25px"/>
    <line x1="509.56128" y1="208.01408" x2="512.25397" y2="208.01408" style="fill:#fff;stroke:#1a699f;stroke-miterlimit:10;stroke-width:0.25px"/>
    <line x1="513.23488" y1="208.01408" x2="515.92757" y2="208.01408" style="fill:#fff;stroke:#1a699f;stroke-miterlimit:10;stroke-width:0.25px"/>
    <line x1="511.72121" y1="209.69308" x2="514.41391" y2="209.69308" style="fill:#fff;stroke:#1a699f;stroke-miterlimit:10;stroke-width:0.25px"/>
    <line x1="515.63534" y1="209.69308" x2="518.32803" y2="209.69308" style="fill:#fff;stroke:#1a699f;stroke-miterlimit:10;stroke-width:0.25px"/>
    <line x1="516.90994" y1="208.01408" x2="519.60263" y2="208.01408" style="fill:#fff;stroke:#1a699f;stroke-miterlimit:10;stroke-width:0.25px"/>
    <line x1="515.4298" y1="206.21526" x2="521.27805" y2="206.21526" style="fill:#fff;stroke:#1a699f;stroke-miterlimit:10;stroke-width:0.25px"/>
    <path d="M518.75154,221.266h13.77437a6.909,6.909,0,0,0-6.86517-6.38033,6.96381,6.96381,0,0,0-6.9092,6.38033Z" transform="translate(-10.79395 -17.55518)" style="fill:#fff"/>
  </g>
  <g id="华村-10" data-name="华村">
    <circle cx="633.17171" cy="153.8278" r="7.37838" style="fill:#24adde;stroke:#1a699f;stroke-miterlimit:10;stroke-width:0.25px"/>
    <line x1="625.79333" y1="153.8278" x2="640.55009" y2="153.8278" style="fill:#fff;stroke:#1a699f;stroke-miterlimit:10;stroke-width:0.25px"/>
    <line x1="626.83147" y1="155.81122" x2="632.88614" y2="155.81122" style="fill:#fff;stroke:#1a699f;stroke-miterlimit:10;stroke-width:0.25px"/>
    <line x1="627.86619" y1="157.61004" x2="630.55888" y2="157.61004" style="fill:#fff;stroke:#1a699f;stroke-miterlimit:10;stroke-width:0.25px"/>
    <line x1="631.53979" y1="157.61004" x2="634.23248" y2="157.61004" style="fill:#fff;stroke:#1a699f;stroke-miterlimit:10;stroke-width:0.25px"/>
    <line x1="630.02613" y1="159.28904" x2="632.71882" y2="159.28904" style="fill:#fff;stroke:#1a699f;stroke-miterlimit:10;stroke-width:0.25px"/>
    <line x1="633.94025" y1="159.28904" x2="636.63294" y2="159.28904" style="fill:#fff;stroke:#1a699f;stroke-miterlimit:10;stroke-width:0.25px"/>
    <line x1="635.21485" y1="157.61004" x2="637.90754" y2="157.61004" style="fill:#fff;stroke:#1a699f;stroke-miterlimit:10;stroke-width:0.25px"/>
    <line x1="633.73471" y1="155.81122" x2="639.58297" y2="155.81122" style="fill:#fff;stroke:#1a699f;stroke-miterlimit:10;stroke-width:0.25px"/>
    <path d="M637.05645,170.86193h13.77437a6.909,6.909,0,0,0-6.86517-6.38033,6.96381,6.96381,0,0,0-6.9092,6.38033Z" transform="translate(-10.79395 -17.55518)" style="fill:#fff"/>
  </g>
  <g id="华村-11" data-name="华村">
    <circle cx="725.14561" cy="90.88034" r="7.37838" style="fill:#24adde;stroke:#1a699f;stroke-miterlimit:10;stroke-width:0.25px"/>
    <line x1="717.76723" y1="90.88034" x2="732.52399" y2="90.88034" style="fill:#fff;stroke:#1a699f;stroke-miterlimit:10;stroke-width:0.25px"/>
    <line x1="718.80537" y1="92.86376" x2="724.86004" y2="92.86376" style="fill:#fff;stroke:#1a699f;stroke-miterlimit:10;stroke-width:0.25px"/>
    <line x1="719.84009" y1="94.66258" x2="722.53278" y2="94.66258" style="fill:#fff;stroke:#1a699f;stroke-miterlimit:10;stroke-width:0.25px"/>
    <line x1="723.51369" y1="94.66258" x2="726.20639" y2="94.66258" style="fill:#fff;stroke:#1a699f;stroke-miterlimit:10;stroke-width:0.25px"/>
    <line x1="722.00003" y1="96.34158" x2="724.69272" y2="96.34158" style="fill:#fff;stroke:#1a699f;stroke-miterlimit:10;stroke-width:0.25px"/>
    <line x1="725.91415" y1="96.34158" x2="728.60685" y2="96.34158" style="fill:#fff;stroke:#1a699f;stroke-miterlimit:10;stroke-width:0.25px"/>
    <line x1="727.18875" y1="94.66258" x2="729.88144" y2="94.66258" style="fill:#fff;stroke:#1a699f;stroke-miterlimit:10;stroke-width:0.25px"/>
    <line x1="725.70861" y1="92.86376" x2="731.55687" y2="92.86376" style="fill:#fff;stroke:#1a699f;stroke-miterlimit:10;stroke-width:0.25px"/>
    <path d="M729.03035,107.91447h13.77437a6.909,6.909,0,0,0-6.86517-6.38033,6.96381,6.96381,0,0,0-6.9092,6.38033Z" transform="translate(-10.79395 -17.55518)" style="fill:#fff"/>
  </g>
  <g id="华村-12" data-name="华村">
    <circle cx="755.78391" cy="112.7917" r="7.37838" style="fill:#24adde;stroke:#1a699f;stroke-miterlimit:10;stroke-width:0.25px"/>
    <line x1="748.40553" y1="112.7917" x2="763.16229" y2="112.7917" style="fill:#fff;stroke:#1a699f;stroke-miterlimit:10;stroke-width:0.25px"/>
    <line x1="749.44367" y1="114.77512" x2="755.49834" y2="114.77512" style="fill:#fff;stroke:#1a699f;stroke-miterlimit:10;stroke-width:0.25px"/>
    <line x1="750.47839" y1="116.57394" x2="753.17108" y2="116.57394" style="fill:#fff;stroke:#1a699f;stroke-miterlimit:10;stroke-width:0.25px"/>
    <line x1="754.15199" y1="116.57394" x2="756.84468" y2="116.57394" style="fill:#fff;stroke:#1a699f;stroke-miterlimit:10;stroke-width:0.25px"/>
    <line x1="752.63833" y1="118.25294" x2="755.33102" y2="118.25294" style="fill:#fff;stroke:#1a699f;stroke-miterlimit:10;stroke-width:0.25px"/>
    <line x1="756.55245" y1="118.25294" x2="759.24514" y2="118.25294" style="fill:#fff;stroke:#1a699f;stroke-miterlimit:10;stroke-width:0.25px"/>
    <line x1="757.82705" y1="116.57394" x2="760.51974" y2="116.57394" style="fill:#fff;stroke:#1a699f;stroke-miterlimit:10;stroke-width:0.25px"/>
    <line x1="756.34691" y1="114.77512" x2="762.19516" y2="114.77512" style="fill:#fff;stroke:#1a699f;stroke-miterlimit:10;stroke-width:0.25px"/>
    <path d="M759.66865,129.82583H773.443a6.909,6.909,0,0,0-6.86517-6.38034,6.96383,6.96383,0,0,0-6.9092,6.38034Z" transform="translate(-10.79395 -17.55518)" style="fill:#fff"/>
  </g>
  <g id="华村-13" data-name="华村">
    <circle cx="745.4379" cy="179.85519" r="7.37838" style="fill:#24adde;stroke:#1a699f;stroke-miterlimit:10;stroke-width:0.25px"/>
    <line x1="738.05952" y1="179.85519" x2="752.81627" y2="179.85519" style="fill:#fff;stroke:#1a699f;stroke-miterlimit:10;stroke-width:0.25px"/>
    <line x1="739.09766" y1="181.8386" x2="745.15232" y2="181.8386" style="fill:#fff;stroke:#1a699f;stroke-miterlimit:10;stroke-width:0.25px"/>
    <line x1="740.13237" y1="183.63742" x2="742.82506" y2="183.63742" style="fill:#fff;stroke:#1a699f;stroke-miterlimit:10;stroke-width:0.25px"/>
    <line x1="743.80598" y1="183.63742" x2="746.49867" y2="183.63742" style="fill:#fff;stroke:#1a699f;stroke-miterlimit:10;stroke-width:0.25px"/>
    <line x1="742.29231" y1="185.31642" x2="744.985" y2="185.31642" style="fill:#fff;stroke:#1a699f;stroke-miterlimit:10;stroke-width:0.25px"/>
    <line x1="746.20644" y1="185.31642" x2="748.89913" y2="185.31642" style="fill:#fff;stroke:#1a699f;stroke-miterlimit:10;stroke-width:0.25px"/>
    <line x1="747.48103" y1="183.63742" x2="750.17373" y2="183.63742" style="fill:#fff;stroke:#1a699f;stroke-miterlimit:10;stroke-width:0.25px"/>
    <line x1="746.00089" y1="181.8386" x2="751.84915" y2="181.8386" style="fill:#fff;stroke:#1a699f;stroke-miterlimit:10;stroke-width:0.25px"/>
    <path d="M749.32264,196.88931H763.097a6.909,6.909,0,0,0-6.86517-6.38033,6.96379,6.96379,0,0,0-6.90919,6.38033Z" transform="translate(-10.79395 -17.55518)" style="fill:#fff"/>
  </g>
  <g id="华村-14" data-name="华村">
    <circle cx="713.59724" cy="227.00807" r="7.37838" style="fill:#24adde;stroke:#1a699f;stroke-miterlimit:10;stroke-width:0.25px"/>
    <line x1="706.21886" y1="227.00807" x2="720.97562" y2="227.00807" style="fill:#fff;stroke:#1a699f;stroke-miterlimit:10;stroke-width:0.25px"/>
    <line x1="707.257" y1="228.99149" x2="713.31167" y2="228.99149" style="fill:#fff;stroke:#1a699f;stroke-miterlimit:10;stroke-width:0.25px"/>
    <line x1="708.29172" y1="230.79031" x2="710.98441" y2="230.79031" style="fill:#fff;stroke:#1a699f;stroke-miterlimit:10;stroke-width:0.25px"/>
    <line x1="711.96532" y1="230.79031" x2="714.65802" y2="230.79031" style="fill:#fff;stroke:#1a699f;stroke-miterlimit:10;stroke-width:0.25px"/>
    <line x1="710.45166" y1="232.46931" x2="713.14435" y2="232.46931" style="fill:#fff;stroke:#1a699f;stroke-miterlimit:10;stroke-width:0.25px"/>
    <line x1="714.36579" y1="232.46931" x2="717.05848" y2="232.46931" style="fill:#fff;stroke:#1a699f;stroke-miterlimit:10;stroke-width:0.25px"/>
    <line x1="715.64038" y1="230.79031" x2="718.33307" y2="230.79031" style="fill:#fff;stroke:#1a699f;stroke-miterlimit:10;stroke-width:0.25px"/>
    <line x1="714.16024" y1="228.99149" x2="720.0085" y2="228.99149" style="fill:#fff;stroke:#1a699f;stroke-miterlimit:10;stroke-width:0.25px"/>
    <path d="M717.482,244.0422h13.77437a6.909,6.909,0,0,0-6.86517-6.38034,6.96383,6.96383,0,0,0-6.9092,6.38034Z" transform="translate(-10.79395 -17.55518)" style="fill:#fff"/>
  </g>
  <g id="华村-15" data-name="华村">
    <circle cx="653.5742" cy="277.31858" r="7.37838" style="fill:#24adde;stroke:#1a699f;stroke-miterlimit:10;stroke-width:0.25px"/>
    <line x1="646.19582" y1="277.31858" x2="660.95258" y2="277.31858" style="fill:#fff;stroke:#1a699f;stroke-miterlimit:10;stroke-width:0.25px"/>
    <line x1="647.23396" y1="279.302" x2="653.28863" y2="279.302" style="fill:#fff;stroke:#1a699f;stroke-miterlimit:10;stroke-width:0.25px"/>
    <line x1="648.26868" y1="281.10081" x2="650.96137" y2="281.10081" style="fill:#fff;stroke:#1a699f;stroke-miterlimit:10;stroke-width:0.25px"/>
    <line x1="651.94228" y1="281.10081" x2="654.63497" y2="281.10081" style="fill:#fff;stroke:#1a699f;stroke-miterlimit:10;stroke-width:0.25px"/>
    <line x1="650.42861" y1="282.77981" x2="653.12131" y2="282.77981" style="fill:#fff;stroke:#1a699f;stroke-miterlimit:10;stroke-width:0.25px"/>
    <line x1="654.34274" y1="282.77981" x2="657.03543" y2="282.77981" style="fill:#fff;stroke:#1a699f;stroke-miterlimit:10;stroke-width:0.25px"/>
    <line x1="655.61734" y1="281.10081" x2="658.31003" y2="281.10081" style="fill:#fff;stroke:#1a699f;stroke-miterlimit:10;stroke-width:0.25px"/>
    <line x1="654.1372" y1="279.302" x2="659.98545" y2="279.302" style="fill:#fff;stroke:#1a699f;stroke-miterlimit:10;stroke-width:0.25px"/>
    <path d="M657.45894,294.3527H671.2333a6.909,6.909,0,0,0-6.86517-6.38033,6.96381,6.96381,0,0,0-6.90919,6.38033Z" transform="translate(-10.79395 -17.55518)" style="fill:#fff"/>
  </g>
  <g id="华村-16" data-name="华村">
    <circle cx="610.3188" cy="306.30044" r="7.37838" style="fill:#24adde;stroke:#1a699f;stroke-miterlimit:10;stroke-width:0.25px"/>
    <line x1="602.94042" y1="306.30044" x2="617.69718" y2="306.30044" style="fill:#fff;stroke:#1a699f;stroke-miterlimit:10;stroke-width:0.25px"/>
    <line x1="603.97856" y1="308.28386" x2="610.03323" y2="308.28386" style="fill:#fff;stroke:#1a699f;stroke-miterlimit:10;stroke-width:0.25px"/>
    <line x1="605.01328" y1="310.08267" x2="607.70597" y2="310.08267" style="fill:#fff;stroke:#1a699f;stroke-miterlimit:10;stroke-width:0.25px"/>
    <line x1="608.68688" y1="310.08267" x2="611.37957" y2="310.08267" style="fill:#fff;stroke:#1a699f;stroke-miterlimit:10;stroke-width:0.25px"/>
    <line x1="607.17321" y1="311.76168" x2="609.8659" y2="311.76168" style="fill:#fff;stroke:#1a699f;stroke-miterlimit:10;stroke-width:0.25px"/>
    <line x1="611.08734" y1="311.76168" x2="613.78003" y2="311.76168" style="fill:#fff;stroke:#1a699f;stroke-miterlimit:10;stroke-width:0.25px"/>
    <line x1="612.36194" y1="310.08267" x2="615.05463" y2="310.08267" style="fill:#fff;stroke:#1a699f;stroke-miterlimit:10;stroke-width:0.25px"/>
    <line x1="610.8818" y1="308.28386" x2="616.73005" y2="308.28386" style="fill:#fff;stroke:#1a699f;stroke-miterlimit:10;stroke-width:0.25px"/>
    <path d="M614.20354,323.33457H627.9779a6.909,6.909,0,0,0-6.86517-6.38034,6.96383,6.96383,0,0,0-6.90919,6.38034Z" transform="translate(-10.79395 -17.55518)" style="fill:#fff"/>
  </g>
  <g id="华村-17" data-name="华村">
    <circle cx="619.12539" cy="367.39723" r="7.37838" style="fill:#24adde;stroke:#1a699f;stroke-miterlimit:10;stroke-width:0.25px"/>
    <line x1="611.74701" y1="367.39723" x2="626.50377" y2="367.39723" style="fill:#fff;stroke:#1a699f;stroke-miterlimit:10;stroke-width:0.25px"/>
    <line x1="612.78515" y1="369.38065" x2="618.83982" y2="369.38065" style="fill:#fff;stroke:#1a699f;stroke-miterlimit:10;stroke-width:0.25px"/>
    <line x1="613.81987" y1="371.17946" x2="616.51256" y2="371.17946" style="fill:#fff;stroke:#1a699f;stroke-miterlimit:10;stroke-width:0.25px"/>
    <line x1="617.49347" y1="371.17946" x2="620.18616" y2="371.17946" style="fill:#fff;stroke:#1a699f;stroke-miterlimit:10;stroke-width:0.25px"/>
    <line x1="615.97981" y1="372.85846" x2="618.6725" y2="372.85846" style="fill:#fff;stroke:#1a699f;stroke-miterlimit:10;stroke-width:0.25px"/>
    <line x1="619.89393" y1="372.85846" x2="622.58663" y2="372.85846" style="fill:#fff;stroke:#1a699f;stroke-miterlimit:10;stroke-width:0.25px"/>
    <line x1="621.16853" y1="371.17946" x2="623.86122" y2="371.17946" style="fill:#fff;stroke:#1a699f;stroke-miterlimit:10;stroke-width:0.25px"/>
    <line x1="619.68839" y1="369.38065" x2="625.53665" y2="369.38065" style="fill:#fff;stroke:#1a699f;stroke-miterlimit:10;stroke-width:0.25px"/>
    <path d="M623.01013,384.43135H636.7845a6.909,6.909,0,0,0-6.86517-6.38033,6.96383,6.96383,0,0,0-6.9092,6.38033Z" transform="translate(-10.79395 -17.55518)" style="fill:#fff"/>
  </g>
  <g id="华村-18" data-name="华村">
    <circle cx="518.00734" cy="405.60026" r="7.37838" style="fill:#24adde;stroke:#1a699f;stroke-miterlimit:10;stroke-width:0.25px"/>
    <line x1="510.62896" y1="405.60026" x2="525.38572" y2="405.60026" style="fill:#fff;stroke:#1a699f;stroke-miterlimit:10;stroke-width:0.25px"/>
    <line x1="511.6671" y1="407.58368" x2="517.72177" y2="407.58368" style="fill:#fff;stroke:#1a699f;stroke-miterlimit:10;stroke-width:0.25px"/>
    <line x1="512.70182" y1="409.3825" x2="515.39451" y2="409.3825" style="fill:#fff;stroke:#1a699f;stroke-miterlimit:10;stroke-width:0.25px"/>
    <line x1="516.37542" y1="409.3825" x2="519.06811" y2="409.3825" style="fill:#fff;stroke:#1a699f;stroke-miterlimit:10;stroke-width:0.25px"/>
    <line x1="514.86176" y1="411.0615" x2="517.55445" y2="411.0615" style="fill:#fff;stroke:#1a699f;stroke-miterlimit:10;stroke-width:0.25px"/>
    <line x1="518.77588" y1="411.0615" x2="521.46857" y2="411.0615" style="fill:#fff;stroke:#1a699f;stroke-miterlimit:10;stroke-width:0.25px"/>
    <line x1="520.05048" y1="409.3825" x2="522.74317" y2="409.3825" style="fill:#fff;stroke:#1a699f;stroke-miterlimit:10;stroke-width:0.25px"/>
    <line x1="518.57034" y1="407.58368" x2="524.41859" y2="407.58368" style="fill:#fff;stroke:#1a699f;stroke-miterlimit:10;stroke-width:0.25px"/>
    <path d="M521.89208,422.63439h13.77437a6.909,6.909,0,0,0-6.86517-6.38033,6.96381,6.96381,0,0,0-6.9092,6.38033Z" transform="translate(-10.79395 -17.55518)" style="fill:#fff"/>
  </g>
  <g id="华村-19" data-name="华村">
    <circle cx="248.97195" cy="111.41456" r="7.37838" style="fill:#24adde;stroke:#1a699f;stroke-miterlimit:10;stroke-width:0.25px"/>
    <line x1="241.59357" y1="111.41456" x2="256.35033" y2="111.41456" style="fill:#fff;stroke:#1a699f;stroke-miterlimit:10;stroke-width:0.25px"/>
    <line x1="242.63171" y1="113.39798" x2="248.68638" y2="113.39798" style="fill:#fff;stroke:#1a699f;stroke-miterlimit:10;stroke-width:0.25px"/>
    <line x1="243.66643" y1="115.19679" x2="246.35912" y2="115.19679" style="fill:#fff;stroke:#1a699f;stroke-miterlimit:10;stroke-width:0.25px"/>
    <line x1="247.34003" y1="115.19679" x2="250.03273" y2="115.19679" style="fill:#fff;stroke:#1a699f;stroke-miterlimit:10;stroke-width:0.25px"/>
    <line x1="245.82637" y1="116.87579" x2="248.51906" y2="116.87579" style="fill:#fff;stroke:#1a699f;stroke-miterlimit:10;stroke-width:0.25px"/>
    <line x1="249.7405" y1="116.87579" x2="252.43319" y2="116.87579" style="fill:#fff;stroke:#1a699f;stroke-miterlimit:10;stroke-width:0.25px"/>
    <line x1="251.01509" y1="115.19679" x2="253.70778" y2="115.19679" style="fill:#fff;stroke:#1a699f;stroke-miterlimit:10;stroke-width:0.25px"/>
    <line x1="249.53495" y1="113.39798" x2="255.38321" y2="113.39798" style="fill:#fff;stroke:#1a699f;stroke-miterlimit:10;stroke-width:0.25px"/>
    <path d="M252.85669,128.44868h13.77437a6.909,6.909,0,0,0-6.86517-6.38033,6.96383,6.96383,0,0,0-6.9092,6.38033Z" transform="translate(-10.79395 -17.55518)" style="fill:#fff"/>
  </g>
  <g id="华村-20" data-name="华村">
    <circle cx="173.70384" cy="166.56657" r="7.37838" style="fill:#24adde;stroke:#1a699f;stroke-miterlimit:10;stroke-width:0.25px"/>
    <line x1="166.32546" y1="166.56657" x2="181.08222" y2="166.56657" style="fill:#fff;stroke:#1a699f;stroke-miterlimit:10;stroke-width:0.25px"/>
    <line x1="167.3636" y1="168.54999" x2="173.41827" y2="168.54999" style="fill:#fff;stroke:#1a699f;stroke-miterlimit:10;stroke-width:0.25px"/>
    <line x1="168.39832" y1="170.3488" x2="171.09101" y2="170.3488" style="fill:#fff;stroke:#1a699f;stroke-miterlimit:10;stroke-width:0.25px"/>
    <line x1="172.07192" y1="170.3488" x2="174.76461" y2="170.3488" style="fill:#fff;stroke:#1a699f;stroke-miterlimit:10;stroke-width:0.25px"/>
    <line x1="170.55826" y1="172.0278" x2="173.25095" y2="172.0278" style="fill:#fff;stroke:#1a699f;stroke-miterlimit:10;stroke-width:0.25px"/>
    <line x1="174.47238" y1="172.0278" x2="177.16507" y2="172.0278" style="fill:#fff;stroke:#1a699f;stroke-miterlimit:10;stroke-width:0.25px"/>
    <line x1="175.74698" y1="170.3488" x2="178.43967" y2="170.3488" style="fill:#fff;stroke:#1a699f;stroke-miterlimit:10;stroke-width:0.25px"/>
    <line x1="174.26684" y1="168.54999" x2="180.1151" y2="168.54999" style="fill:#fff;stroke:#1a699f;stroke-miterlimit:10;stroke-width:0.25px"/>
    <path d="M177.58858,183.60069H191.363a6.909,6.909,0,0,0-6.86517-6.38033,6.96381,6.96381,0,0,0-6.9092,6.38033Z" transform="translate(-10.79395 -17.55518)" style="fill:#fff"/>
  </g>
  <g id="华村-21" data-name="华村">
    <circle cx="281.31888" cy="344.18455" r="7.37838" style="fill:#24adde;stroke:#1a699f;stroke-miterlimit:10;stroke-width:0.25px"/>
    <line x1="273.9405" y1="344.18455" x2="288.69726" y2="344.18455" style="fill:#fff;stroke:#1a699f;stroke-miterlimit:10;stroke-width:0.25px"/>
    <line x1="274.97864" y1="346.16797" x2="281.03331" y2="346.16797" style="fill:#fff;stroke:#1a699f;stroke-miterlimit:10;stroke-width:0.25px"/>
    <line x1="276.01336" y1="347.96679" x2="278.70605" y2="347.96679" style="fill:#fff;stroke:#1a699f;stroke-miterlimit:10;stroke-width:0.25px"/>
    <line x1="279.68696" y1="347.96679" x2="282.37965" y2="347.96679" style="fill:#fff;stroke:#1a699f;stroke-miterlimit:10;stroke-width:0.25px"/>
    <line x1="278.17329" y1="349.64579" x2="280.86599" y2="349.64579" style="fill:#fff;stroke:#1a699f;stroke-miterlimit:10;stroke-width:0.25px"/>
    <line x1="282.08742" y1="349.64579" x2="284.78011" y2="349.64579" style="fill:#fff;stroke:#1a699f;stroke-miterlimit:10;stroke-width:0.25px"/>
    <line x1="283.36202" y1="347.96679" x2="286.05471" y2="347.96679" style="fill:#fff;stroke:#1a699f;stroke-miterlimit:10;stroke-width:0.25px"/>
    <line x1="281.88188" y1="346.16797" x2="287.73013" y2="346.16797" style="fill:#fff;stroke:#1a699f;stroke-miterlimit:10;stroke-width:0.25px"/>
    <path d="M285.20362,361.21868H298.978a6.909,6.909,0,0,0-6.86518-6.38033,6.96381,6.96381,0,0,0-6.90919,6.38033Z" transform="translate(-10.79395 -17.55518)" style="fill:#fff"/>
  </g>
  <g id="华村-22" data-name="华村">
    <circle cx="126.30117" cy="255.10607" r="7.37838" style="fill:#24adde;stroke:#1a699f;stroke-miterlimit:10;stroke-width:0.25px"/>
    <line x1="118.92279" y1="255.10607" x2="133.67954" y2="255.10607" style="fill:#fff;stroke:#1a699f;stroke-miterlimit:10;stroke-width:0.25px"/>
    <line x1="119.96093" y1="257.08949" x2="126.01559" y2="257.08949" style="fill:#fff;stroke:#1a699f;stroke-miterlimit:10;stroke-width:0.25px"/>
    <line x1="120.99564" y1="258.88831" x2="123.68833" y2="258.88831" style="fill:#fff;stroke:#1a699f;stroke-miterlimit:10;stroke-width:0.25px"/>
    <line x1="124.66925" y1="258.88831" x2="127.36194" y2="258.88831" style="fill:#fff;stroke:#1a699f;stroke-miterlimit:10;stroke-width:0.25px"/>
    <line x1="123.15558" y1="260.56731" x2="125.84827" y2="260.56731" style="fill:#fff;stroke:#1a699f;stroke-miterlimit:10;stroke-width:0.25px"/>
    <line x1="127.06971" y1="260.56731" x2="129.7624" y2="260.56731" style="fill:#fff;stroke:#1a699f;stroke-miterlimit:10;stroke-width:0.25px"/>
    <line x1="128.3443" y1="258.88831" x2="131.037" y2="258.88831" style="fill:#fff;stroke:#1a699f;stroke-miterlimit:10;stroke-width:0.25px"/>
    <line x1="126.86416" y1="257.08949" x2="132.71242" y2="257.08949" style="fill:#fff;stroke:#1a699f;stroke-miterlimit:10;stroke-width:0.25px"/>
    <path d="M130.18591,272.1402h13.77436a6.909,6.909,0,0,0-6.86517-6.38033,6.96379,6.96379,0,0,0-6.90919,6.38033Z" transform="translate(-10.79395 -17.55518)" style="fill:#fff"/>
  </g>
  <g id="华村-23" data-name="华村">
    <circle cx="109.90477" cy="221.11069" r="7.37838" style="fill:#24adde;stroke:#1a699f;stroke-miterlimit:10;stroke-width:0.25px"/>
    <line x1="102.52639" y1="221.11069" x2="117.28315" y2="221.11069" style="fill:#fff;stroke:#1a699f;stroke-miterlimit:10;stroke-width:0.25px"/>
    <line x1="103.56453" y1="223.09411" x2="109.61919" y2="223.09411" style="fill:#fff;stroke:#1a699f;stroke-miterlimit:10;stroke-width:0.25px"/>
    <line x1="104.59925" y1="224.89292" x2="107.29194" y2="224.89292" style="fill:#fff;stroke:#1a699f;stroke-miterlimit:10;stroke-width:0.25px"/>
    <line x1="108.27285" y1="224.89292" x2="110.96554" y2="224.89292" style="fill:#fff;stroke:#1a699f;stroke-miterlimit:10;stroke-width:0.25px"/>
    <line x1="106.75918" y1="226.57193" x2="109.45187" y2="226.57193" style="fill:#fff;stroke:#1a699f;stroke-miterlimit:10;stroke-width:0.25px"/>
    <line x1="110.67331" y1="226.57193" x2="113.366" y2="226.57193" style="fill:#fff;stroke:#1a699f;stroke-miterlimit:10;stroke-width:0.25px"/>
    <line x1="111.94791" y1="224.89292" x2="114.6406" y2="224.89292" style="fill:#fff;stroke:#1a699f;stroke-miterlimit:10;stroke-width:0.25px"/>
    <line x1="110.46777" y1="223.09411" x2="116.31602" y2="223.09411" style="fill:#fff;stroke:#1a699f;stroke-miterlimit:10;stroke-width:0.25px"/>
    <path d="M113.78951,238.14481h13.77436a6.909,6.909,0,0,0-6.86517-6.38033,6.96381,6.96381,0,0,0-6.90919,6.38033Z" transform="translate(-10.79395 -17.55518)" style="fill:#fff"/>
  </g>
  <g id="华村-24" data-name="华村">
    <circle cx="722.60808" cy="486.37862" r="7.37838" style="fill:#24adde;stroke:#1a699f;stroke-miterlimit:10;stroke-width:0.25px"/>
    <line x1="715.2297" y1="486.37862" x2="729.98646" y2="486.37862" style="fill:#fff;stroke:#1a699f;stroke-miterlimit:10;stroke-width:0.25px"/>
    <line x1="716.26784" y1="488.36204" x2="722.3225" y2="488.36204" style="fill:#fff;stroke:#1a699f;stroke-miterlimit:10;stroke-width:0.25px"/>
    <line x1="717.30255" y1="490.16085" x2="719.99525" y2="490.16085" style="fill:#fff;stroke:#1a699f;stroke-miterlimit:10;stroke-width:0.25px"/>
    <line x1="720.97616" y1="490.16085" x2="723.66885" y2="490.16085" style="fill:#fff;stroke:#1a699f;stroke-miterlimit:10;stroke-width:0.25px"/>
    <line x1="719.46249" y1="491.83986" x2="722.15518" y2="491.83986" style="fill:#fff;stroke:#1a699f;stroke-miterlimit:10;stroke-width:0.25px"/>
    <line x1="723.37662" y1="491.83986" x2="726.06931" y2="491.83986" style="fill:#fff;stroke:#1a699f;stroke-miterlimit:10;stroke-width:0.25px"/>
    <line x1="724.65122" y1="490.16085" x2="727.34391" y2="490.16085" style="fill:#fff;stroke:#1a699f;stroke-miterlimit:10;stroke-width:0.25px"/>
    <line x1="723.17108" y1="488.36204" x2="729.01933" y2="488.36204" style="fill:#fff;stroke:#1a699f;stroke-miterlimit:10;stroke-width:0.25px"/>
    <path d="M726.49282,503.41274h13.77436a6.909,6.909,0,0,0-6.86517-6.38033,6.96381,6.96381,0,0,0-6.90919,6.38033Z" transform="translate(-10.79395 -17.55518)" style="fill:#fff"/>
  </g>
  <g id="华村-25" data-name="华村">
    <circle cx="737.92989" cy="517.35652" r="7.37838" style="fill:#24adde;stroke:#1a699f;stroke-miterlimit:10;stroke-width:0.25px"/>
    <line x1="730.55151" y1="517.35652" x2="745.30827" y2="517.35652" style="fill:#fff;stroke:#1a699f;stroke-miterlimit:10;stroke-width:0.25px"/>
    <line x1="731.58965" y1="519.33994" x2="737.64432" y2="519.33994" style="fill:#fff;stroke:#1a699f;stroke-miterlimit:10;stroke-width:0.25px"/>
    <line x1="732.62437" y1="521.13876" x2="735.31706" y2="521.13876" style="fill:#fff;stroke:#1a699f;stroke-miterlimit:10;stroke-width:0.25px"/>
    <line x1="736.29797" y1="521.13876" x2="738.99067" y2="521.13876" style="fill:#fff;stroke:#1a699f;stroke-miterlimit:10;stroke-width:0.25px"/>
    <line x1="734.78431" y1="522.81776" x2="737.477" y2="522.81776" style="fill:#fff;stroke:#1a699f;stroke-miterlimit:10;stroke-width:0.25px"/>
    <line x1="738.69844" y1="522.81776" x2="741.39113" y2="522.81776" style="fill:#fff;stroke:#1a699f;stroke-miterlimit:10;stroke-width:0.25px"/>
    <line x1="739.97303" y1="521.13876" x2="742.66572" y2="521.13876" style="fill:#fff;stroke:#1a699f;stroke-miterlimit:10;stroke-width:0.25px"/>
    <line x1="738.49289" y1="519.33994" x2="744.34115" y2="519.33994" style="fill:#fff;stroke:#1a699f;stroke-miterlimit:10;stroke-width:0.25px"/>
    <path d="M741.81463,534.39065H755.589a6.909,6.909,0,0,0-6.86517-6.38034,6.96383,6.96383,0,0,0-6.9092,6.38034Z" transform="translate(-10.79395 -17.55518)" style="fill:#fff"/>
  </g>
  <text transform="translate(739.84729 200.52052)" style="font-size:11px;fill:#127dc2;font-family:FZSSJW--GB1-0, FZShuSong-Z01S">葫芦山</text>
  <text transform="translate(702.09412 248.58881)" style="font-size:11px;fill:#127dc2;font-family:FZSSJW--GB1-0, FZShuSong-Z01S">沟里</text>
  <text transform="translate(637.69984 298.10201)" style="font-size:11px;fill:#127dc2;font-family:FZSSJW--GB1-0, FZShuSong-Z01S">鹁鸽楼</text>
  <text transform="translate(598.24431 326.11961)" style="font-size:11px;fill:#127dc2;font-family:FZSSJW--GB1-0, FZShuSong-Z01S">角峪</text>
  <text transform="translate(608.75104 387.3962)" style="font-size:11px;fill:#127dc2;font-family:FZSSJW--GB1-0, FZShuSong-Z01S">彩山</text>
  <text transform="translate(506.50419 424.50701)" style="font-size:11px;fill:#127dc2;font-family:FZSSJW--GB1-0, FZShuSong-Z01S">山阳</text>
  <text transform="translate(612.51418 412.83597)" style="font-size:11px;fill:#127dc2;font-family:FZSSJW--GB1-0, FZShuSong-Z01S">苇池</text>
  <text transform="translate(734.43799 490.58087)" style="font-size:11px;fill:#127dc2;font-family:FZSSJW--GB1-0, FZShuSong-Z01S">金斗</text>
  <text transform="translate(726.92999 538.67281)" style="font-size:11px;fill:#127dc2;font-family:FZSSJW--GB1-0, FZShuSong-Z01S">东周</text>
  <text transform="translate(514.63506 523.42488)" style="font-size:11px;fill:#127dc2;font-family:FZSSJW--GB1-0, FZShuSong-Z01S">田村</text>
  <text transform="translate(606.12653 532.99934)" style="font-size:11px;fill:#127dc2;font-family:FZSSJW--GB1-0, FZShuSong-Z01S">光明</text>
  <text transform="translate(472.89011 477.4006)" style="font-size:11px;fill:#127dc2;font-family:FZSSJW--GB1-0, FZShuSong-Z01S">直界</text>
  <text transform="translate(389.98404 469.50479)" style="font-size:11px;fill:#127dc2;font-family:FZSSJW--GB1-0, FZShuSong-Z01S">贤村</text>
  <text transform="translate(384.43664 305.62406)" style="font-size:11px;fill:#127dc2;font-family:FZSSJW--GB1-0, FZShuSong-Z01S">胜利</text>
  <text transform="translate(427.3345 295.36125)" style="font-size:11px;fill:#127dc2;font-family:FZSSJW--GB1-0, FZShuSong-Z01S">大河</text>
  <text transform="translate(482.81567 291.06648)" style="font-size:11px;fill:#127dc2;font-family:FZSSJW--GB1-0, FZShuSong-Z01S">黄前</text>
  <text transform="translate(497.10851 250.98209)" style="font-size:11px;fill:#127dc2;font-family:FZSSJW--GB1-0, FZShuSong-Z01S">小安门</text>
  <text transform="translate(643.19986 158.89851)" style="font-size:11px;fill:#127dc2;font-family:FZSSJW--GB1-0, FZShuSong-Z01S">大冶</text>
  <text transform="translate(679.59964 94.66232)" style="font-size:11px;fill:#127dc2;font-family:FZSSJW--GB1-0, FZShuSong-Z01S">杨家横</text>
  <text transform="translate(766.20032 116.99393)" style="font-size:11px;fill:#127dc2;font-family:FZSSJW--GB1-0, FZShuSong-Z01S">乔店</text>
  <text transform="translate(502.92405 191.41833)" style="font-size:11px;fill:#127dc2;font-family:FZSSJW--GB1-0, FZShuSong-Z01S">公庄</text>
  <text transform="translate(117.4162 244.02536)" style="font-size:11px;fill:#127dc2;font-family:FZSSJW--GB1-0, FZShuSong-Z01S">崮头</text>
  <text transform="translate(69.74252 223.31447)" style="font-size:11px;fill:#127dc2;font-family:FZSSJW--GB1-0, FZShuSong-Z01S">钓鱼台</text>
  <text transform="translate(184.92465 170.76907)" style="font-size:11px;fill:#127dc2;font-family:FZSSJW--GB1-0, FZShuSong-Z01S">石店</text>
  <text transform="translate(233.09735 130.40207)" style="font-size:11px;fill:#127dc2;font-family:FZSSJW--GB1-0, FZShuSong-Z01S">锦绣川</text>
  <text transform="translate(552.62523 119.29965)" style="font-size:11px;fill:#127dc2;font-family:FZSSJW--GB1-0, FZShuSong-Z01S">雪野</text>
  <text transform="translate(169.9649 133.84888)" style="font-size:11px;fill:#127dc2;font-family:FZSSJW--GB1-0, FZShuSong-Z01S">卧虎山</text>
  <text transform="translate(264.79678 364.95153)" style="font-size:11px;fill:#127dc2;font-family:FZSSJW--GB1-0, FZShuSong-Z01S">尚庄炉</text>
  <g id="高崖">
    <circle cx="188.07212" cy="110.83561" r="9.44433" style="fill:#2e6bb4;stroke:#1a699f;stroke-miterlimit:10;stroke-width:0.25px"/>
    <path d="M190.02229,127.72384h17.63118a8.84349,8.84349,0,0,0-8.78742-8.16682,8.91366,8.91366,0,0,0-8.84376,8.16682Z" transform="translate(-10.79395 -17.55518)" style="fill:#fff"/>
  </g>
  <g id="高崖-2" data-name="高崖">
    <circle cx="541.43467" cy="115.61704" r="9.44433" style="fill:#2e6bb4;stroke:#1a699f;stroke-miterlimit:10;stroke-width:0.25px"/>
    <path d="M543.38483,132.50527H561.016a8.84349,8.84349,0,0,0-8.78742-8.16682,8.91368,8.91368,0,0,0-8.84377,8.16682Z" transform="translate(-10.79395 -17.55518)" style="fill:#fff"/>
  </g>
  <g id="高崖-3" data-name="高崖">
    <circle cx="595.07589" cy="527.75852" r="9.44433" style="fill:#2e6bb4;stroke:#1a699f;stroke-miterlimit:10;stroke-width:0.25px"/>
    <path d="M597.02605,544.64675h17.63119a8.84349,8.84349,0,0,0-8.78742-8.16683,8.9137,8.9137,0,0,0-8.84377,8.16683Z" transform="translate(-10.79395 -17.55518)" style="fill:#fff"/>
  </g>
  <polygon id="东里店" points="323.639 261.338 332.023 275.163 337.542 269.591 323.639 261.338" style="fill:#c91e1d"/>
  <polygon id="东里店-2" data-name="东里店" points="542.121 229.579 557.812 233.476 557.8 225.634 542.121 229.579" style="fill:#c91e1d"/>
  <polygon id="东里店-3" data-name="东里店" points="671.895 224.775 667.156 209.316 660.439 213.365 671.895 224.775" style="fill:#c91e1d"/>
  <polygon id="东里店-4" data-name="东里店" points="475.907 359.668 480.646 375.126 487.363 371.078 475.907 359.668" style="fill:#c91e1d"/>
  <polygon id="东里店-5" data-name="东里店" points="679.972 182.58 664.28 178.684 664.293 186.526 679.972 182.58" style="fill:#c91e1d"/>
  <polygon id="东里店-6" data-name="东里店" points="542.121 64.223 557.812 68.12 557.8 60.277 542.121 64.223" style="fill:#c91e1d"/>
  <polygon id="东里店-7" data-name="东里店" points="474.557 326.12 459.441 331.857 463.919 338.295 474.557 326.12" style="fill:#c91e1d"/>
  <polygon id="东里店-8" data-name="东里店" points="522.197 287.972 513.94 297.929 519.597 300.643 522.197 287.972" style="fill:none;stroke:#be2120;stroke-miterlimit:10"/>
  <polygon id="东里店-9" data-name="东里店" points="544.007 279.491 556.563 282.597 556.547 276.322 544.007 279.491" style="fill:none;stroke:#be2120;stroke-miterlimit:10"/>
  <polygon id="东里店-10" data-name="东里店" points="723.972 202.177 729.028 214.082 734.036 210.302 723.972 202.177" style="fill:none;stroke:#be2120;stroke-miterlimit:10"/>
  <polygon id="东里店-11" data-name="东里店" points="596.112 464.353 600.509 476.517 605.716 473.017 596.112 464.353" style="fill:none;stroke:#be2120;stroke-miterlimit:10"/>
  <polygon id="东里店-12" data-name="东里店" points="303.891 369.381 312.274 383.205 317.794 377.634 303.891 369.381" style="fill:#c91e1d"/>
  <polygon id="东里店-13" data-name="东里店" points="133.427 409.852 129.483 425.532 137.326 425.543 133.427 409.852" style="fill:#c91e1d"/>
  <polygon id="东里店-14" data-name="东里店" points="386.145 401.733 390.088 386.053 382.246 386.042 386.145 401.733" style="fill:#c91e1d"/>
  <polygon id="东里店-15" data-name="东里店" points="488.4 442.685 499.231 430.681 492.308 426.997 488.4 442.685" style="fill:#c91e1d"/>
  <text transform="translate(321.34129 284.85115)" style="font-size:10px;fill:#1a76b5;font-family:FZHTJW--GB1-0, FZHei-B01S">白楼</text>
  <text transform="translate(397.44961 336.80638)" style="font-size:10px;fill:#1a76b5;font-family:FZHTJW--GB1-0, FZHei-B01S">泮汶河入河口</text>
  <text transform="translate(476.48331 308.28371)" style="font-size:10px;fill:#1a76b5;font-family:FZHTJW--GB1-0, FZHei-B01S">石汶河引水闸</text>
  <text transform="translate(542.12085 269.94022)" style="font-size:10px;fill:#1a76b5;font-family:FZHTJW--GB1-0, FZHei-B01S">瀛汶河引水闸</text>
  <text transform="translate(543.20596 244.02533)" style="font-size:10px;fill:#1a76b5;font-family:FZHTJW--GB1-0, FZHei-B01S">陈北</text>
  <text transform="translate(658.30994 197.3304)" style="font-size:10px;fill:#1a76b5;font-family:FZHTJW--GB1-0, FZHei-B01S">泰丰</text>
  <text transform="translate(640.03723 224.77441)" style="font-size:10px;fill:#1a76b5;font-family:FZHTJW--GB1-0, FZHei-B01S">莱芜</text>
  <text transform="translate(488.40012 369.38065)" style="font-size:10px;fill:#1a76b5;font-family:FZHTJW--GB1-0, FZHei-B01S">北望</text>
  <text transform="translate(732.20746 221.9659)" style="font-size:10px;fill:#1a76b5;font-family:FZHTJW--GB1-0, FZHei-B01S">马盘龙</text>
  <text transform="translate(544.00656 80.49341)" style="font-size:10px;fill:#1a76b5;font-family:FZHTJW--GB1-0, FZHei-B01S">上游</text>
  <text transform="translate(318.70437 374.77555)" style="font-size:10px;fill:#1a76b5;font-family:FZHTJW--GB1-0, FZHei-B01S">东王庄</text>
  <text transform="translate(371.41031 383.13673)" style="font-size:10px;fill:#1a76b5;font-family:FZHTJW--GB1-0, FZHei-B01S">大汶口</text>
  <text transform="translate(499.2312 440.07306)" style="font-size:10px;fill:#1a76b5;font-family:FZHTJW--GB1-0, FZHei-B01S">楼德</text>
  <text transform="translate(608.53162 474.34781)" style="font-size:10px;fill:#1a76b5;font-family:FZHTJW--GB1-0, FZHei-B01S">角峪大桥</text>
  <text transform="translate(117.8519 437.72595)" style="font-size:10px;fill:#1a76b5;font-family:FZHTJW--GB1-0, FZHei-B01S">戴村坝</text>
 
  <text transform="matrix(0.96593, 0, 0.25882, 0.96593, 191.35766, 424.50664)" style="font-size:14px;fill:#127dc2;font-family:FZSSJW--GB1-0, FZShuSong-Z01S">
    <tspan xml:space="preserve">河                汶                大</tspan>
  </text>
  <text transform="matrix(0.96593, 0, 0.25882, 0.96593, 562.81786, 317.08587)" style="font-size:12px;fill:#127dc2;font-family:FZSSJW--GB1-0, FZShuSong-Z01S">牟</text>
  <text transform="matrix(0.96593, 0, 0.25882, 0.96593, 547.93945, 159.18859)" style="font-size:11px;fill:#127dc2;font-family:FZSSJW--GB1-0, FZShuSong-Z01S">瀛</text>
  <text transform="matrix(0.96593, 0, 0.25882, 0.96593, 354.10571, 216.20971)" style="font-size:11px;fill:#127dc2;font-family:FZSSJW--GB1-0, FZShuSong-Z01S">汇</text>
  <text transform="matrix(0.96593, 0, 0.25882, 0.96593, 349.51025, 340.47344)" style="font-size:11px;fill:#127dc2;font-family:FZSSJW--GB1-0, FZShuSong-Z01S">浊</text>
  <text transform="matrix(0.96593, 0, 0.25882, 0.96593, 369.51684, 322.27507)" style="font-size:11px;fill:#127dc2;font-family:FZSSJW--GB1-0, FZShuSong-Z01S">漕</text>
  <text transform="matrix(0.96593, 0, 0.25882, 0.96593, 218.71386, 336.20769)" style="font-size:11px;fill:#127dc2;font-family:FZSSJW--GB1-0, FZShuSong-Z01S">河</text>
  <text transform="matrix(0.96593, 0, 0.25882, 0.96593, 328.97118, 358.66839)" style="font-size:11px;fill:#127dc2;font-family:FZSSJW--GB1-0, FZShuSong-Z01S">河</text>
  <text transform="matrix(0.96593, 0, 0.25882, 0.96593, 644.29711, 442.68499)" style="font-size:11px;fill:#127dc2;font-family:FZSSJW--GB1-0, FZShuSong-Z01S">流</text>
  <text transform="matrix(0.96593, 0, 0.25882, 0.96593, 668.53417, 427.66716)" style="font-size:11px;fill:#127dc2;font-family:FZSSJW--GB1-0, FZShuSong-Z01S">羊</text>
  <text transform="matrix(0.96593, 0, 0.25882, 0.96593, 620.47997, 458.72588)" style="font-size:11px;fill:#127dc2;font-family:FZSSJW--GB1-0, FZShuSong-Z01S">河</text>
  <text transform="matrix(0.96593, 0, 0.25882, 0.96593, 566.6477, 504.36248)" style="font-size:12px;fill:#127dc2;font-family:FZSSJW--GB1-0, FZShuSong-Z01S">柴</text>
  <text transform="matrix(0.96593, 0, 0.25882, 0.96593, 506.03515, 353.17144)" style="font-size:12px;fill:#127dc2;font-family:FZSSJW--GB1-0, FZShuSong-Z01S">汶</text>
  <text transform="matrix(0.96593, 0, 0.25882, 0.96593, 547.93945, 187.23363)" style="font-size:11px;fill:#127dc2;font-family:FZSSJW--GB1-0, FZShuSong-Z01S">汶</text>
  <text transform="matrix(0.96593, 0, 0.25882, 0.96593, 512.97997, 480.00029)" style="font-size:12px;fill:#127dc2;font-family:FZSSJW--GB1-0, FZShuSong-Z01S">汶</text>
  <text transform="matrix(0.96593, 0, 0.25882, 0.96593, 439.08764, 396.22197)" style="font-size:12px;fill:#127dc2;font-family:FZSSJW--GB1-0, FZShuSong-Z01S">河</text>
  <text transform="matrix(0.96593, 0, 0.25882, 0.96593, 547.9392, 213.73211)" style="font-size:11px;fill:#127dc2;font-family:FZSSJW--GB1-0, FZShuSong-Z01S">河</text>
  <text transform="matrix(0.96593, 0, 0.25882, 0.96593, 618.20238, 178.75475)" style="font-size:11px;fill:#127dc2;font-family:FZSSJW--GB1-0, FZShuSong-Z01S">方</text>
  <text transform="matrix(0.96593, 0, 0.25882, 0.96593, 580.31933, 366.87652)" style="font-size:11px;fill:#127dc2;font-family:FZSSJW--GB1-0, FZShuSong-Z01S">淘</text>
  <text transform="matrix(0.96593, 0, 0.25882, 0.96593, 618.20238, 206.79979)" style="font-size:11px;fill:#127dc2;font-family:FZSSJW--GB1-0, FZShuSong-Z01S">下</text>
  <text transform="matrix(0.96593, 0, 0.25882, 0.96593, 618.20214, 233.29827)" style="font-size:11px;fill:#127dc2;font-family:FZSSJW--GB1-0, FZShuSong-Z01S">河</text>
  <text transform="matrix(0.96593, 0, 0.25882, 0.96593, 541.85375, 347.96672)" style="font-size:11px;fill:#127dc2;font-family:FZSSJW--GB1-0, FZShuSong-Z01S">河</text>
  <text transform="matrix(0.96593, 0, 0.25882, 0.96593, 709.3457, 119.65477)" style="font-size:11px;fill:#127dc2;font-family:FZSSJW--GB1-0, FZShuSong-Z01S">盘</text>
  <text transform="matrix(0.96593, 0, 0.25882, 0.96593, 709.3457, 147.69982)" style="font-size:11px;fill:#127dc2;font-family:FZSSJW--GB1-0, FZShuSong-Z01S">龙</text>
  <text transform="matrix(0.96593, 0, 0.25882, 0.96593, 709.34545, 174.19829)" style="font-size:11px;fill:#127dc2;font-family:FZSSJW--GB1-0, FZShuSong-Z01S">河</text>
  <text transform="matrix(0.96593, 0, 0.25882, 0.96593, 687.77135, 149.67333)" style="font-size:11px;fill:#127dc2;font-family:FZSSJW--GB1-0, FZShuSong-Z01S">孝</text>
  <text transform="matrix(0.96593, 0, 0.25882, 0.96593, 687.77135, 174.71837)" style="font-size:11px;fill:#127dc2;font-family:FZSSJW--GB1-0, FZShuSong-Z01S">义</text>
  <text transform="matrix(0.96593, 0, 0.25882, 0.96593, 687.77111, 198.21685)" style="font-size:11px;fill:#127dc2;font-family:FZSSJW--GB1-0, FZShuSong-Z01S">河</text>
  <text transform="matrix(0.96593, 0, 0.25882, 0.96593, 68.87182, 125.06115)" style="font-size:11px;fill:#127dc2;font-family:FZSSJW--GB1-0, FZShuSong-Z01S">
    <tspan xml:space="preserve">河          符          玉</tspan>
  </text>
  <text transform="matrix(0.96593, 0, 0.25882, 0.96593, 63.0144, 196.85357)" style="font-size:11px;fill:#127dc2;font-family:FZSSJW--GB1-0, FZShuSong-Z01S">
    <tspan xml:space="preserve">河         沙         大         北</tspan>
  </text>
  <text transform="matrix(0.96593, 0, 0.25882, 0.96593, 51.04516, 270.60735)" style="font-size:11px;fill:#127dc2;font-family:FZSSJW--GB1-0, FZShuSong-Z01S">
    <tspan xml:space="preserve">河        沙        大        南</tspan>
  </text>
  <text transform="matrix(0.96593, 0, 0.25882, 0.96593, 436.46655, 445.15813)" style="font-size:12px;fill:#127dc2;font-family:FZSSJW--GB1-0, FZShuSong-Z01S">河</text>
  <g id="rainImage"></g>
  <g id="Info_RAIN"></g>
  <g id="Icon_RAIN"></g>
  <g id="g_RR_State"></g>
  <g id="g_RR_Active"></g>
</svg>