<svg id="svg_1" data-name="图层 1" xmlns="http://www.w3.org/2000/svg" xmlns:xlink="http://www.w3.org/1999/xlink"  viewBox="0 0 751.76894 416.6047" onclick="onSvgclick(evt)" onmouseover="onSvgonmouseover(evt)" onmouseout="onSvgonmouseout(evt)" onload="init(this)">
  <script  type="text/javascript" xlink:href="../../Jquery/svg/svg-pan-zoom.js"></script>
  <script  type="text/javascript" xlink:href="../../Jquery/svg/svg.min.js"></script>
  <script  type="text/javascript" xlink:href="../../Jquery/svg/snap.svg-min.js"></script>
  <script  type="text/javascript" xlink:href="../../Jquery/jquery-3.3.1.min.js"></script>
  <script  type="text/javascript" xlink:href="../../Script/ybdd/svg/svg_innerop_ght.js"></script>
  <title></title>
   <rect id="东汶河" x="46.04845" y="419.44602" width="212.14943" height="2.83465" transform="translate(-247.8016 73.92314) rotate(-30)" style="fill:#2b6b9d"/>
  <path id="中运河" d="M432.69919,305.01232c1.2321,1.947,1.72592,3.84486.79393,4.43465l-93.8188,59.37169c-.88384.55932-2.64016-.53963-3.87226-2.48659h0c-1.2321-1.947-1.43133-4.03128-.58957-4.564l93.8188-59.37168c1.04772-.663,2.4358.66895,3.6679,2.6159Z" transform="translate(-57.75057 -58.52344)" style="fill:#2c70a5"/>
  <path id="中运河-2" data-name="中运河" d="M529.23288,244.00981c1.2321,1.947,1.71082,3.85441.751,4.46182l-96.62221,61.14578c-.91025.576-2.6892-.50859-3.9213-2.45555h0c-1.2321-1.947-1.40744-4.0464-.54053-4.595L525.522,241.42107c1.079-.68284,2.47874.64178,3.71084,2.58874Z" transform="translate(-57.75057 -58.52344)" style="fill:#2c70a5"/>
  <path id="中运河-3" data-name="中运河" d="M588.74468,245.39357c0,2.30406-.32672,4.17188-.92969,4.17188H527.11685c-.57182,0-1.0619-1.86782-1.0619-4.17188h0c0-2.30407.51731-4.17188,1.0619-4.17188H587.815c.67784,0,.92969,1.86781.92969,4.17188Z" transform="translate(-57.75057 -58.52344)" style="fill:#2c70a5"/>
  <path id="中运河-4" data-name="中运河" d="M809.51952,245.39357c0,2.30406-1.18187,4.17188-3.363,4.17188H586.58915a4.05205,4.05205,0,0,1-3.84129-4.17188h0a4.12006,4.12006,0,0,1,3.84129-4.17188H806.1565c2.452,0,3.363,1.86781,3.363,4.17188Z" transform="translate(-57.75057 -58.52344)" style="fill:#2c70a5"/>
  <path id="中运河-5" data-name="中运河" d="M149.617,364.90145c0,2.30407-.47878,4.17188-1.36238,4.17188H59.3067c-.83795,0-1.55613-1.86781-1.55613-4.17188h0c0-2.30406.75808-4.17187,1.55613-4.17187h88.94794c.99332,0,1.36238,1.86781,1.36238,4.17187Z" transform="translate(-57.75057 -58.52344)" style="fill:#2c70a5"/>
  <path id="中运河-6" data-name="中运河" d="M341.21514,364.90145c0,2.30407-1.01992,4.17188-2.90218,4.17188H148.83323c-1.785,0-3.31491-1.86781-3.31491-4.17188h0c0-2.30406,1.61487-4.17187,3.31491-4.17187H338.313c2.116,0,2.90218,1.86781,2.90218,4.17187Z" transform="translate(-57.75057 -58.52344)" style="fill:#2c70a5"/>
  <rect id="白马河" x="4.85438" y="347.23255" width="113.38583" height="1.70079" style="fill:#2b6b9d"/>
  <rect id="白马河-2" data-name="白马河" x="432.16787" y="236.02706" width="102.04724" height="5.66929" transform="translate(-110.33878 239.2369) rotate(-32.57848)" style="fill:#2b6b9d"/>
  <rect id="白马河-3" data-name="白马河" x="429.03468" y="313.27417" width="34.01575" height="2.83465" transform="translate(29.31055 -155.07036) rotate(13.67769)" style="fill:#2b6b9d"/>
  <rect id="白马河-4" data-name="白马河" x="411.81325" y="283.93999" width="46.06963" height="5.66929" transform="translate(777.33106 -105.1339) rotate(106.80235)" style="fill:#2b6b9d"/>
  <rect id="白马河-5" data-name="白马河" x="451.88524" y="281.88386" width="141.73228" height="2.83465" transform="translate(-129.36576 240.80742) rotate(-30)" style="fill:#2b6b9d"/>
  <polygon id="东里店" points="52.229 348.007 47.871 365.435 56.585 365.435 52.229 348.007" style="fill:#c91e1d"/>
  <polygon id="东里店-2" data-name="东里店" points="149.269 329.813 154.862 346.885 162.238 342.244 149.269 329.813" style="fill:#c91e1d"/>
  <polygon id="东里店-3" data-name="东里店" points="204.463 310.667 200.105 328.095 208.819 328.095 204.463 310.667" style="fill:#c91e1d"/>
  <polygon id="东里店-4" data-name="东里店" points="298.7 298.759 303.754 315.998 311.272 311.591 298.7 298.759" style="fill:#c91e1d"/>
  <text transform="matrix(0.96593, 0, 0.25882, 0.96593, 63.18204, 288.85198)" style="font-size:14px;fill:#127dc2;font-family:FZSSJW--GB1-0, FZShuSong-Z01S">岳城水库</text>
  <text transform="translate(12.9796 363.78555)" style="font-size:14px;fill:#1a76b5;font-family:FZHTJW--GB1-0, FZHei-B01S">安阳</text>
  <text transform="translate(141.98799 361.61642)" style="font-size:14px;fill:#1a76b5;font-family:FZHTJW--GB1-0, FZHei-B01S">元村</text>
  <text transform="translate(191.96671 343.80791)" style="font-size:14px;fill:#1a76b5;font-family:FZHTJW--GB1-0, FZHei-B01S">南陶</text>
  <text transform="translate(293.64775 329.81323)" style="font-size:14px;fill:#1a76b5;font-family:FZHTJW--GB1-0, FZHei-B01S">临清</text>
  <text transform="translate(286.43253 258.92383)" style="font-size:14px;fill:#d71718;font-family:FZHTJW--GB1-0, FZHei-B01S">四女寺闸上</text>
  <text transform="translate(377.59488 282.29697)" style="font-size:14px;fill:#d71718;font-family:FZHTJW--GB1-0, FZHei-B01S">四女寺闸(减)</text>
  <text transform="translate(294.87125 208.76501)" style="font-size:14px;fill:#d71718;font-family:FZHTJW--GB1-0, FZHei-B01S">四女寺闸(南)</text>
  <text transform="translate(389.08414 231.16928)" style="font-size:14px;fill:#d71718;font-family:FZHTJW--GB1-0, FZHei-B01S">四女寺闸(岔)</text>
  <text transform="translate(662.33951 211.63751)" style="font-size:14px;fill:#d71718;font-family:FZHTJW--GB1-0, FZHei-B01S">庆云闸</text>
  <text transform="matrix(0.96593, 0, 0.25882, 0.96593, 57.97159, 397.97381)" style="font-size:12px;fill:#127dc2;font-family:FZSSJW--GB1-0, FZShuSong-Z01S">卫</text>
  <text transform="matrix(0.96593, 0, 0.25882, 0.96593, 109.81558, 368.62066)" style="font-size:12px;fill:#127dc2;font-family:FZSSJW--GB1-0, FZShuSong-Z01S">河</text>
  <text transform="matrix(0.96593, 0, 0.25882, 0.96593, 23.07071, 294.79119)" style="font-size:12px;fill:#127dc2;font-family:FZSSJW--GB1-0, FZShuSong-Z01S">漳</text>
  <text transform="matrix(0.96593, 0, 0.25882, 0.96593, 146.11319, 294.79107)" style="font-size:12px;fill:#127dc2;font-family:FZSSJW--GB1-0, FZShuSong-Z01S">河</text>
  <text transform="matrix(0.96593, 0, 0.25882, 0.96593, 390.73038, 188.23821)" style="font-size:12px;fill:#127dc2;font-family:FZSSJW--GB1-0, FZShuSong-Z01S">南</text>
  <text transform="matrix(0.96593, 0, 0.25882, 0.96593, 417.73038, 171.0042)" style="font-size:12px;fill:#127dc2;font-family:FZSSJW--GB1-0, FZShuSong-Z01S">运</text>
  <text transform="matrix(0.96593, 0, 0.25882, 0.96593, 445.30484, 154.91906)" style="font-size:12px;fill:#127dc2;font-family:FZSSJW--GB1-0, FZShuSong-Z01S">河</text>
  <text transform="matrix(0.96593, 0, 0.25882, 0.96593, 237.3688, 296.58904)" style="font-size:12px;fill:#127dc2;font-family:FZSSJW--GB1-0, FZShuSong-Z01S">卫</text>
  <text transform="matrix(0.96593, 0, 0.25882, 0.96593, 274.30508, 296.58916)" style="font-size:12px;fill:#127dc2;font-family:FZSSJW--GB1-0, FZShuSong-Z01S">运</text>
  <text transform="matrix(0.96593, 0, 0.25882, 0.96593, 303.98599, 277.85503)" style="font-size:12px;fill:#127dc2;font-family:FZSSJW--GB1-0, FZShuSong-Z01S">河</text>
  <text transform="matrix(0.96593, 0, 0.25882, 0.96593, 427.49624, 261.7697)" style="font-size:12px;fill:#127dc2;font-family:FZSSJW--GB1-0, FZShuSong-Z01S">老</text>
  <text transform="matrix(0.96593, 0, 0.25882, 0.96593, 457.36856, 243.96117)" style="font-size:12px;fill:#127dc2;font-family:FZSSJW--GB1-0, FZShuSong-Z01S">减</text>
  <text transform="matrix(0.96593, 0, 0.25882, 0.96593, 488.96451, 227.30156)" style="font-size:12px;fill:#127dc2;font-family:FZSSJW--GB1-0, FZShuSong-Z01S">河</text>
  <text transform="matrix(0.96593, 0, 0.25882, 0.96593, 494.475, 177.45049)" style="font-size:12px;fill:#127dc2;font-family:FZSSJW--GB1-0, FZShuSong-Z01S">
    <tspan xml:space="preserve">漳          卫           新          河</tspan>
  </text>
  <g id="跋山">
    <circle cx="88.46715" cy="306.32091" r="11.65966" style="fill:#2e6bb4;stroke:#1a699f;stroke-miterlimit:10;stroke-width:0.25px"/>
    <path d="M135.29948,364.021h21.7669a10.91791,10.91791,0,0,0-10.84867-10.08251A11.00454,11.00454,0,0,0,135.29948,364.021Z" transform="translate(-57.75057 -58.52344)" style="fill:#fff"/>
  </g>
  <rect x="418.45414" y="303.81266" width="8.24922" height="15.82228" transform="translate(888.65714 289.91208) rotate(147.59383)" style="fill:#fff"/>
  <path d="M422.86634,321.37886l8.03208-5.09852L421.976,302.2242l-8.03208,5.09852ZM429.392,315.828l-6.159,3.90955-.10708-6.97483Zm-7.64779-12.04812.10708,6.97482-6.26608-3.06527Z" transform="translate(-57.75057 -58.52344)" style="fill:#c91e1d"/>
  <rect x="442.07553" y="288.84081" width="8.24922" height="15.82228" transform="matrix(-0.84427, 0.53592, -0.53592, -0.84427, 924.19768, 249.64082)" style="fill:#fff"/>
  <path d="M446.48772,306.407l8.03208-5.09852-8.92242-14.05614-8.03207,5.09853Zm6.52563-5.55083-6.159,3.90955-.10708-6.97483Zm-7.64778-12.04812.10708,6.97482-6.26608-3.06527Z" transform="translate(-57.75057 -58.52344)" style="fill:#c91e1d"/>
  <rect x="437.43604" y="257.57554" width="8.24922" height="15.82228" transform="translate(898.8856 194.46559) rotate(147.59383)" style="fill:#fff"/>
  <path d="M441.84824,275.14174l8.03207-5.09853-8.92241-14.05613-8.03208,5.09852Zm6.52563-5.55084-6.159,3.90955-.10708-6.97482Zm-7.64779-12.04811.10708,6.97482-6.26608-3.06528Z" transform="translate(-57.75057 -58.52344)" style="fill:#c91e1d"/>
  <rect x="458.4287" y="310.15867" width="8.24922" height="15.82228" transform="translate(965.78197 280.19276) rotate(147.59383)" style="fill:#fff"/>
  <path d="M462.84089,327.72487l8.03208-5.09852-8.92242-14.05614-8.03207,5.09853Zm6.52563-5.55083-6.159,3.90955-.10708-6.97483Zm-7.64778-12.04812.10708,6.97482-6.26608-3.06527Z" transform="translate(-57.75057 -58.52344)" style="fill:#c91e1d"/>
  <rect x="736.398" y="237.46249" width="8.24922" height="15.82228" transform="translate(-56.17926 -63.21566) rotate(0.36343)" style="fill:#fff"/>
  <path d="M745.50671,237.09948l-9.51344-.06035-.1056,16.64853,9.51344.06034Zm-8.49156,1.13536,7.29491.04628-3.68517,5.92276Zm-.09051,14.27017,3.68517-5.92277,3.60973,5.969Z" transform="translate(-57.75057 -58.52344)" style="fill:#c91e1d"/>
  <g id="rainImage"></g>
  <g id="Info_RAIN"></g>
  <g id="Icon_RAIN"></g>
  <g id="g_RR_State"></g>
  <g id="g_RR_Active"></g>
</svg>